<svg width="155" height="28" viewBox="0 0 155 28" fill="none" xmlns="http://www.w3.org/2000/svg">
<path d="M11.7908 8.74197C10.5881 10.3361 8.05219 12.0331 4.60121 12.0331C3.47703 12.0331 2.37899 11.8274 1.41167 11.4931L11.7908 8.74197ZM11.8692 10.8246C11.8692 10.8246 11.0587 13.4729 8.52278 15.1956C6.43128 16.6097 4.6535 16.9183 3.08487 16.944L11.8692 10.8246ZM12.0261 13.3701C12.0261 13.4729 12.0261 13.55 12.0261 13.6529C12.0261 17.2782 9.43781 21.0578 6.37899 22.3434L12.0261 13.3701ZM12.4444 16.7897C12.6796 17.5354 13.2025 18.8724 14.0653 19.9522C14.0914 20.4151 14.1176 20.8264 14.1176 21.2893C14.1176 23.1919 13.5685 25.0432 12.4443 26.6116L12.4444 16.7897ZM12.0261 8.00422e-07L12.0261 7.9449C11.0326 7.53352 9.88226 7.35354 8.70579 7.35354C5.28095 7.35353 2.37899 8.61341 -9.20306e-05 11.9045C1.43781 12.4959 2.9803 12.9073 4.70579 12.9073C3.1633 14.5528 2.37899 15.8384 1.9084 17.741C2.22213 17.7668 2.562 17.7925 2.90187 17.7925C4.28749 17.7925 5.77768 17.4839 6.66657 17.124C5.93455 18.5124 5.4901 19.9522 5.4901 21.7521C5.4901 22.292 5.54239 22.8834 5.62082 23.5262C7.26788 22.9862 8.44435 22.3177 9.85611 21.0321C9.85611 23.4233 10.4313 25.6088 12.4443 28C14.4574 25.6088 15.0326 23.4233 15.0326 21.0321C16.4443 22.3177 17.6208 22.9862 19.2679 23.5262C19.3463 22.8834 19.3986 22.292 19.3986 21.7521C19.3986 19.9523 18.9542 18.5124 18.2221 17.124C19.1372 17.4839 20.6274 17.7925 21.9868 17.7925C22.3267 17.7925 22.6666 17.7668 22.9803 17.741C22.5097 15.8384 21.7254 14.5528 20.1829 12.9073C21.9084 12.9073 23.4509 12.4959 24.8888 11.9045C22.5097 8.61341 19.6077 7.35354 16.1829 7.35354C15.0064 7.35354 13.8561 7.53352 12.8627 7.9449L12.8627 8.72417e-07L12.0261 8.00422e-07ZM23.477 11.4931C22.5097 11.8274 21.4117 12.0331 20.2875 12.0331C16.8627 12.0331 14.3006 10.3361 13.0979 8.74197L23.477 11.4931ZM21.8038 16.944C20.2352 16.9183 18.4574 16.6097 16.3659 15.1956C13.83 13.4729 13.0195 10.8246 13.0195 10.8246L21.8038 16.944ZM18.5097 22.3434C15.4509 21.0579 12.8627 17.2782 12.8627 13.6529C12.8627 13.55 12.8627 13.4729 12.8627 13.3701L18.5097 22.3434Z" fill="white"/>
<path d="M77.987 19.258C79.1896 17.6639 81.7255 15.9669 85.1765 15.9669C86.3007 15.9669 87.3987 16.1726 88.366 16.5069L77.987 19.258ZM77.9085 17.1754C77.9085 17.1754 78.719 14.5271 81.2549 12.8044C83.3464 11.3903 85.1242 11.0817 86.6928 11.056L77.9085 17.1754ZM77.7517 14.6299C77.7517 14.5271 77.7517 14.45 77.7517 14.3471C77.7517 10.7218 80.3399 6.94215 83.3987 5.65657L77.7517 14.6299ZM77.3334 11.2103C77.0981 10.4646 76.5752 9.12764 75.7124 8.04775C75.6863 7.58494 75.6602 7.17356 75.6602 6.71075C75.6602 4.80808 76.2092 2.95684 77.3334 1.38843L77.3334 11.2103ZM77.7517 28L77.7517 20.0551C78.7451 20.4665 79.8954 20.6465 81.0719 20.6465C84.4968 20.6465 87.3987 19.3866 89.7778 16.0955C88.3399 15.5041 86.7974 15.0927 85.0719 15.0927C86.6144 13.4472 87.3987 12.1616 87.8693 10.259C87.5556 10.2332 87.2157 10.2075 86.8758 10.2075C85.4902 10.2075 84 10.5161 83.1111 10.876C83.8432 9.48761 84.2876 8.04775 84.2876 6.24794C84.2876 5.70799 84.2353 5.11662 84.1569 4.47383C82.5098 5.01378 81.3334 5.68228 79.9216 6.96786C79.9216 4.57668 79.3464 2.39119 77.3334 2.15886e-06C75.3203 2.39119 74.7451 4.57668 74.7451 6.96786C73.3334 5.68228 72.1569 5.01378 70.5098 4.47383C70.4314 5.11662 70.3791 5.70799 70.3791 6.24793C70.3791 8.04775 70.8236 9.48761 71.5556 10.876C70.6405 10.5161 69.1504 10.2075 67.7909 10.2075C67.451 10.2075 67.1111 10.2332 66.7974 10.259C67.268 12.1616 68.0523 13.4472 69.5948 15.0927C67.8693 15.0927 66.3268 15.5041 64.8889 16.0955C67.268 19.3866 70.17 20.6465 73.5948 20.6465C74.7713 20.6465 75.9216 20.4665 76.9151 20.0551L76.9151 28L77.7517 28ZM66.3007 16.5069C67.268 16.1726 68.366 15.9669 69.4902 15.9669C72.9151 15.9669 75.4771 17.6639 76.6798 19.258L66.3007 16.5069ZM67.9739 11.056C69.5425 11.0817 71.3203 11.3903 73.4118 12.8044C75.9477 14.5271 76.7582 17.1754 76.7582 17.1754L67.9739 11.056ZM71.268 5.65657C74.3268 6.94215 76.9151 10.7218 76.9151 14.3471C76.9151 14.45 76.9151 14.5271 76.9151 14.6299L71.268 5.65657Z" fill="white"/>
<path d="M141.569 8.74197C140.366 10.3361 137.83 12.0331 134.379 12.0331C133.255 12.0331 132.157 11.8274 131.19 11.4931L141.569 8.74197ZM141.647 10.8246C141.647 10.8246 140.837 13.4729 138.301 15.1956C136.209 16.6097 134.431 16.9183 132.863 16.944L141.647 10.8246ZM141.804 13.3701C141.804 13.4729 141.804 13.55 141.804 13.6529C141.804 17.2782 139.216 21.0579 136.157 22.3434L141.804 13.3701ZM142.222 16.7897C142.458 17.5354 142.98 18.8724 143.843 19.9522C143.869 20.4151 143.896 20.8264 143.896 21.2893C143.896 23.1919 143.346 25.0432 142.222 26.6116L142.222 16.7897ZM141.804 2.70777e-06L141.804 7.94491C140.811 7.53352 139.66 7.35354 138.484 7.35354C135.059 7.35353 132.157 8.61341 129.778 11.9045C131.216 12.4959 132.758 12.9073 134.484 12.9073C132.941 14.5528 132.157 15.8384 131.686 17.741C132 17.7668 132.34 17.7925 132.68 17.7925C134.065 17.7925 135.556 17.4839 136.445 17.124C135.713 18.5124 135.268 19.9522 135.268 21.7521C135.268 22.292 135.32 22.8834 135.399 23.5262C137.046 22.9862 138.222 22.3177 139.634 21.0321C139.634 23.4233 140.209 25.6088 142.222 28C144.235 25.6088 144.811 23.4233 144.811 21.0321C146.222 22.3177 147.399 22.9862 149.046 23.5262C149.124 22.8834 149.177 22.292 149.177 21.7521C149.177 19.9523 148.732 18.5124 148 17.124C148.915 17.4839 150.405 17.7925 151.765 17.7925C152.105 17.7925 152.445 17.7668 152.758 17.741C152.288 15.8384 151.503 14.5528 149.961 12.9073C151.686 12.9073 153.229 12.4959 154.667 11.9045C152.288 8.61341 149.386 7.35354 145.961 7.35354C144.784 7.35354 143.634 7.53352 142.641 7.94491L142.641 2.77977e-06L141.804 2.70777e-06ZM153.255 11.4931C152.288 11.8274 151.19 12.0331 150.065 12.0331C146.641 12.0331 144.079 10.3361 142.876 8.74197L153.255 11.4931ZM151.582 16.944C150.013 16.9183 148.235 16.6097 146.144 15.1956C143.608 13.4729 142.797 10.8246 142.797 10.8246L151.582 16.944ZM148.288 22.3434C145.229 21.0579 142.641 17.2782 142.641 13.6529C142.641 13.55 142.641 13.4729 142.641 13.3701L148.288 22.3434Z" fill="white"/>
</svg>
