<svg width="131" height="26" viewBox="0 0 131 26" fill="none" xmlns="http://www.w3.org/2000/svg">
<path d="M19.4048 5.9624C19.1577 5.98486 18.9219 6.02979 18.6973 6.09717C18.4727 6.16455 18.2406 6.26937 18.001 6.41162C17.679 6.5988 17.4282 6.80094 17.2485 7.01807C17.0763 7.2277 16.9041 7.51969 16.7319 7.89404C16.4998 8.41064 16.1742 9.16683 15.7549 10.1626C15.3356 11.1509 14.8564 12.2777 14.3174 13.543C13.8382 14.681 13.3179 15.9276 12.7563 17.2827C12.2023 18.6379 11.6707 19.9368 11.1616 21.1797H8.9043C7.85612 18.6117 6.78923 16.0024 5.70361 13.3521C4.618 10.7017 3.85433 8.85986 3.4126 7.82666C3.2404 7.45231 3.07194 7.17155 2.90723 6.98438C2.75 6.78971 2.49544 6.59131 2.14355 6.38916C1.889 6.24691 1.66439 6.14958 1.46973 6.09717C1.27507 6.03727 1.01676 5.98486 0.694824 5.93994V5.06396H9.33105V5.91748C8.52246 6.01481 7.97217 6.11963 7.68018 6.23193C7.39567 6.33675 7.25342 6.47152 7.25342 6.63623C7.25342 6.71859 7.26465 6.80843 7.28711 6.90576C7.31706 6.99561 7.35824 7.11914 7.41064 7.27637C7.65023 7.93522 8.08447 9.01335 8.71338 10.5107C9.34229 12.0007 10.2744 14.2767 11.5098 17.3389C12.266 15.4746 12.8949 13.8986 13.3965 12.6108C13.8981 11.3231 14.3398 10.1851 14.7217 9.19678C14.9089 8.71761 15.0623 8.27214 15.1821 7.86035C15.3094 7.44108 15.373 7.12663 15.373 6.91699C15.373 6.67741 15.2008 6.479 14.8564 6.32178C14.512 6.15706 13.8757 6.03727 12.9473 5.9624V5.06396H19.4048V5.9624ZM26.7046 21H19.6069V20.1802C19.8016 20.1652 19.9925 20.1465 20.1797 20.124C20.3669 20.1016 20.5278 20.0641 20.6626 20.0117C20.9022 19.9219 21.0706 19.7946 21.168 19.6299C21.2653 19.4577 21.314 19.2331 21.314 18.9561V12.4199C21.314 12.1579 21.2541 11.9295 21.1343 11.7349C21.0145 11.5327 20.8647 11.3717 20.6851 11.252C20.5503 11.1621 20.3444 11.076 20.0674 10.9937C19.7979 10.9113 19.5508 10.8589 19.3262 10.8364V10.0166L24.8291 9.72461L24.9976 9.89307V18.8101C24.9976 19.0721 25.0537 19.2967 25.166 19.4839C25.2783 19.6636 25.4393 19.7983 25.6489 19.8882C25.7987 19.9556 25.9634 20.0155 26.1431 20.0679C26.3228 20.1203 26.5099 20.1577 26.7046 20.1802V21ZM25.0649 5.68164C25.0649 6.25065 24.8441 6.7373 24.4023 7.1416C23.9681 7.53841 23.4515 7.73682 22.8525 7.73682C22.2461 7.73682 21.722 7.53841 21.2803 7.1416C20.846 6.7373 20.6289 6.25065 20.6289 5.68164C20.6289 5.11263 20.846 4.62598 21.2803 4.22168C21.722 3.81738 22.2461 3.61523 22.8525 3.61523C23.459 3.61523 23.9793 3.81738 24.4136 4.22168C24.8478 4.62598 25.0649 5.11263 25.0649 5.68164ZM32.9375 21.3818C32.2113 21.3818 31.5 21.2733 30.8037 21.0562C30.1149 20.8465 29.5796 20.6219 29.1978 20.3823L28.8608 21.146H27.9849L27.8389 16.957H28.6587C28.771 17.2939 28.9582 17.6758 29.2202 18.1025C29.4823 18.5218 29.7817 18.8999 30.1187 19.2368C30.4705 19.5737 30.8711 19.8582 31.3203 20.0903C31.777 20.3224 32.2637 20.4385 32.7803 20.4385C33.4616 20.4385 33.967 20.3075 34.2964 20.0454C34.6333 19.7759 34.8018 19.3641 34.8018 18.8101C34.8018 18.5106 34.7269 18.2635 34.5771 18.0688C34.4274 17.8742 34.2215 17.7057 33.9595 17.5635C33.6675 17.4137 33.3455 17.2865 32.9937 17.1816C32.6493 17.0768 32.2225 16.9495 31.7134 16.7998C31.2043 16.6501 30.7663 16.5003 30.3994 16.3506C30.04 16.1934 29.6657 15.95 29.2764 15.6206C28.9395 15.3286 28.6699 14.9767 28.4678 14.5649C28.2656 14.1532 28.1646 13.6628 28.1646 13.0938C28.1646 12.0381 28.6063 11.1846 29.4897 10.5332C30.3807 9.88184 31.5449 9.55615 32.9824 9.55615C33.6637 9.55615 34.2889 9.62728 34.8579 9.76953C35.4344 9.9043 35.9173 10.054 36.3066 10.2188L36.5425 9.55615H37.396L37.5757 13.3857H36.7783C36.5163 12.6071 36.0671 11.937 35.4307 11.3755C34.7943 10.8065 34.1092 10.522 33.3755 10.522C32.799 10.522 32.346 10.6418 32.0166 10.8813C31.6872 11.1209 31.5225 11.4541 31.5225 11.8809C31.5225 12.4499 31.762 12.8617 32.2412 13.1162C32.7279 13.3708 33.4054 13.6104 34.2739 13.835C35.6141 14.1794 36.5949 14.651 37.2163 15.25C37.8377 15.8415 38.1484 16.5977 38.1484 17.5186C38.1484 18.7464 37.6655 19.6973 36.6997 20.3711C35.7414 21.0449 34.4873 21.3818 32.9375 21.3818ZM54.1855 20.7642L48.8286 21.0898L48.6602 20.9326V19.4614H48.5928C48.3382 19.6935 48.0874 19.9219 47.8403 20.1465C47.6007 20.3636 47.3125 20.562 46.9756 20.7417C46.5938 20.9438 46.2306 21.0936 45.8862 21.1909C45.5493 21.2882 45.0552 21.3369 44.4038 21.3369C43.2733 21.3369 42.4048 20.9963 41.7983 20.3149C41.1994 19.6336 40.8999 18.6715 40.8999 17.4287V12.375C40.8999 12.083 40.8438 11.8472 40.7314 11.6675C40.6191 11.4803 40.4694 11.3156 40.2822 11.1733C40.1325 11.061 39.9378 10.9824 39.6982 10.9375C39.4587 10.8851 39.2415 10.8514 39.0469 10.8364V10.0166L44.4937 9.72461L44.6172 9.89307V17.3613C44.6172 18.1325 44.7632 18.7015 45.0552 19.0684C45.3547 19.4352 45.7627 19.6187 46.2793 19.6187C46.8109 19.6187 47.2863 19.4801 47.7056 19.2031C48.1323 18.9261 48.443 18.6304 48.6377 18.3159V12.2627C48.6377 12.0081 48.589 11.7798 48.4917 11.5776C48.3944 11.3755 48.2521 11.2108 48.0649 11.0835C47.9302 10.9937 47.7355 10.9338 47.481 10.9038C47.2339 10.8739 46.9793 10.8514 46.7173 10.8364V10.0166L52.1641 9.72461L52.3325 9.89307V18.563C52.3325 18.825 52.3849 19.0496 52.4897 19.2368C52.5946 19.4165 52.748 19.57 52.9502 19.6973C53.0924 19.7871 53.2759 19.8507 53.5005 19.8882C53.7326 19.9181 53.9609 19.9368 54.1855 19.9443V20.7642ZM67.9316 20.7642C67.6022 20.9064 67.2129 21.0374 66.7637 21.1572C66.3145 21.277 65.839 21.3369 65.3374 21.3369C64.4165 21.3369 63.7389 21.2021 63.3047 20.9326C62.8704 20.6556 62.5747 20.2625 62.4175 19.7534H62.3501C62.0955 20.008 61.8485 20.2251 61.6089 20.4048C61.3768 20.5845 61.126 20.738 60.8564 20.8652C60.5046 21.0299 60.1639 21.1497 59.8345 21.2246C59.5125 21.307 59.0596 21.3481 58.4756 21.3481C57.6071 21.3481 56.8659 21.0936 56.252 20.5845C55.638 20.0679 55.3311 19.3866 55.3311 18.5405C55.3311 18.0539 55.3984 17.6421 55.5332 17.3052C55.668 16.9608 55.8589 16.6576 56.106 16.3955C56.3306 16.1559 56.5889 15.9575 56.8809 15.8003C57.1803 15.6431 57.506 15.4971 57.8579 15.3623C58.5317 15.1152 59.3403 14.8607 60.2837 14.5986C61.2271 14.3291 61.9159 14.0895 62.3501 13.8799V12.8018C62.3501 12.6146 62.3351 12.3675 62.3052 12.0605C62.2752 11.7536 62.2116 11.4953 62.1143 11.2856C62.0094 11.0461 61.8447 10.8439 61.6201 10.6792C61.3955 10.5145 61.0998 10.4321 60.7329 10.4321C60.4035 10.4321 60.1265 10.4808 59.9019 10.5781C59.6847 10.668 59.5088 10.7616 59.374 10.8589C59.3965 11.0086 59.4601 11.237 59.5649 11.5439C59.6698 11.8509 59.7222 12.1466 59.7222 12.4312C59.7222 12.5584 59.6885 12.7194 59.6211 12.9141C59.5537 13.1012 59.4564 13.251 59.3291 13.3633C59.1569 13.513 58.9622 13.6291 58.7451 13.7114C58.5355 13.7938 58.2098 13.835 57.7681 13.835C57.1392 13.835 56.6637 13.6852 56.3418 13.3857C56.0199 13.0788 55.8589 12.682 55.8589 12.1953C55.8589 11.776 56.0236 11.4017 56.353 11.0723C56.6899 10.7354 57.098 10.4583 57.5771 10.2412C58.0488 10.0166 58.5916 9.8444 59.2056 9.72461C59.8195 9.59733 60.3885 9.53369 60.9126 9.53369C61.6388 9.53369 62.3052 9.57861 62.9116 9.66846C63.5181 9.75081 64.0646 9.92676 64.5513 10.1963C65.0155 10.4583 65.3823 10.8402 65.6519 11.3418C65.9289 11.8359 66.0674 12.4836 66.0674 13.2847C66.0674 14.1307 66.0487 15.134 66.0112 16.2944C65.9813 17.4549 65.9663 18.2186 65.9663 18.5854C65.9663 18.9224 66.015 19.1882 66.1123 19.3828C66.2171 19.5775 66.3743 19.7235 66.584 19.8208C66.7113 19.8807 66.9097 19.9181 67.1792 19.9331C67.4562 19.9406 67.707 19.9443 67.9316 19.9443V20.7642ZM62.3501 14.9131C61.9308 15.0553 61.5153 15.2201 61.1035 15.4072C60.6917 15.5869 60.3548 15.7778 60.0928 15.98C59.8158 16.1896 59.5986 16.4591 59.4414 16.7886C59.2842 17.1105 59.2056 17.4924 59.2056 17.9341C59.2056 18.5181 59.3366 18.9411 59.5986 19.2031C59.8682 19.4652 60.1976 19.5962 60.5869 19.5962C60.9987 19.5962 61.3356 19.5138 61.5977 19.3491C61.8672 19.1769 62.103 18.9673 62.3052 18.7202L62.3501 14.9131ZM75.6357 21H68.5942V20.1802C68.7889 20.1652 68.9761 20.1465 69.1558 20.124C69.3429 20.1016 69.5076 20.0641 69.6499 20.0117C69.8895 19.9219 70.0505 19.7946 70.1328 19.6299C70.2227 19.4577 70.2676 19.2331 70.2676 18.9561V6.5127C70.2676 6.22819 70.2077 5.96615 70.0879 5.72656C69.9756 5.47949 69.8221 5.29232 69.6274 5.16504C69.4777 5.06771 69.2493 4.97412 68.9424 4.88428C68.6429 4.79443 68.3771 4.74202 68.145 4.72705V3.90723L73.7939 3.61523L73.9624 3.79492V18.8101C73.9624 19.0871 74.0111 19.3117 74.1084 19.4839C74.2057 19.6561 74.363 19.7909 74.5801 19.8882C74.7298 19.9556 74.887 20.0155 75.0518 20.0679C75.2165 20.1203 75.4111 20.1577 75.6357 20.1802V21ZM88.7979 18.3159C88.5358 18.7427 88.2176 19.147 87.8433 19.5288C87.4764 19.9032 87.0571 20.2251 86.5854 20.4946C86.0838 20.7791 85.5747 20.9925 85.0581 21.1348C84.549 21.2845 83.9613 21.3594 83.2949 21.3594C82.1868 21.3594 81.2285 21.2021 80.4199 20.8877C79.6188 20.5732 78.9562 20.1502 78.4321 19.6187C77.908 19.0871 77.515 18.4619 77.2529 17.7432C76.9984 17.0169 76.8711 16.2308 76.8711 15.3848C76.8711 14.6211 77.0096 13.8911 77.2866 13.1948C77.5711 12.491 77.9717 11.8659 78.4883 11.3193C78.9974 10.7878 79.6375 10.3573 80.4087 10.0278C81.1873 9.6984 82.0558 9.53369 83.0142 9.53369C84.0623 9.53369 84.9233 9.66097 85.5972 9.91553C86.271 10.1701 86.8288 10.522 87.2705 10.9712C87.6973 11.3979 88.008 11.9033 88.2026 12.4873C88.3973 13.0638 88.4946 13.6702 88.4946 14.3066V15.0366H80.9028C80.9028 16.5715 81.1986 17.7394 81.79 18.5405C82.3815 19.3416 83.3211 19.7422 84.6089 19.7422C85.3127 19.7422 85.9453 19.5513 86.5068 19.1694C87.0684 18.7801 87.5475 18.2897 87.9443 17.6982L88.7979 18.3159ZM84.5078 14.0483C84.5078 13.5991 84.4854 13.1387 84.4404 12.667C84.3955 12.1953 84.3169 11.8097 84.2046 11.5103C84.0773 11.1584 83.9014 10.8926 83.6768 10.7129C83.4596 10.5332 83.1826 10.4434 82.8457 10.4434C82.2692 10.4434 81.8088 10.7354 81.4644 11.3193C81.12 11.9033 80.9328 12.828 80.9028 14.0933L84.5078 14.0483ZM102.578 10.6792C102.241 10.7316 101.911 10.8589 101.589 11.061C101.275 11.2632 101.013 11.5776 100.803 12.0044C100.159 13.367 99.4967 14.8195 98.8154 16.3618C98.1341 17.8966 97.3779 19.5588 96.5469 21.3481C96.0827 22.3514 95.6335 23.1525 95.1992 23.7515C94.765 24.3504 94.3569 24.8109 93.9751 25.1328C93.6157 25.4323 93.2601 25.6494 92.9082 25.7842C92.5563 25.9189 92.2007 25.9863 91.8413 25.9863C91.13 25.9863 90.5535 25.7879 90.1118 25.3911C89.6776 24.9943 89.4604 24.5488 89.4604 24.0547C89.4604 23.8451 89.4829 23.6504 89.5278 23.4707C89.5802 23.291 89.6851 23.1038 89.8423 22.9092C89.9621 22.7445 90.1455 22.6022 90.3926 22.4824C90.6471 22.3701 90.9316 22.314 91.2461 22.314C91.6654 22.314 92.0659 22.46 92.4478 22.752C92.8296 23.0439 93.2264 23.4482 93.6382 23.9648C93.8853 23.7178 94.1885 23.3472 94.5479 22.853C94.9147 22.3664 95.1842 21.8647 95.3564 21.3481C94.4655 19.4764 93.6756 17.8555 92.9868 16.4854C92.298 15.1077 91.5269 13.5729 90.6733 11.8809C90.4862 11.5215 90.2354 11.2445 89.9209 11.0498C89.6064 10.8477 89.2733 10.7241 88.9214 10.6792V9.85938H95.7944V10.6792C95.5399 10.6867 95.2441 10.7428 94.9072 10.8477C94.5778 10.9525 94.4131 11.0872 94.4131 11.252C94.4131 11.3118 94.4243 11.3792 94.4468 11.4541C94.4692 11.5215 94.5104 11.6226 94.5703 11.7573C94.8249 12.2814 95.1842 13.0114 95.6484 13.9473C96.1201 14.8757 96.6667 15.965 97.2881 17.2153C97.7523 16.1522 98.1453 15.2388 98.4673 14.4751C98.7967 13.7039 99.1149 12.9478 99.4219 12.2065C99.4967 12.0194 99.5379 11.8734 99.5454 11.7686C99.5604 11.6562 99.5679 11.5814 99.5679 11.5439C99.5679 11.4092 99.5005 11.2931 99.3657 11.1958C99.2384 11.091 99.085 11.0011 98.9053 10.9263C98.7181 10.8514 98.5384 10.7952 98.3662 10.7578C98.194 10.7204 98.0518 10.6942 97.9395 10.6792V9.85938H102.578V10.6792ZM114.897 18.3159C114.635 18.7427 114.317 19.147 113.943 19.5288C113.576 19.9032 113.157 20.2251 112.685 20.4946C112.183 20.7791 111.674 20.9925 111.158 21.1348C110.649 21.2845 110.061 21.3594 109.395 21.3594C108.286 21.3594 107.328 21.2021 106.52 20.8877C105.718 20.5732 105.056 20.1502 104.532 19.6187C104.008 19.0871 103.615 18.4619 103.353 17.7432C103.098 17.0169 102.971 16.2308 102.971 15.3848C102.971 14.6211 103.109 13.8911 103.386 13.1948C103.671 12.491 104.071 11.8659 104.588 11.3193C105.097 10.7878 105.737 10.3573 106.508 10.0278C107.287 9.6984 108.155 9.53369 109.114 9.53369C110.162 9.53369 111.023 9.66097 111.697 9.91553C112.371 10.1701 112.928 10.522 113.37 10.9712C113.797 11.3979 114.108 11.9033 114.302 12.4873C114.497 13.0638 114.594 13.6702 114.594 14.3066V15.0366H107.002C107.002 16.5715 107.298 17.7394 107.89 18.5405C108.481 19.3416 109.421 19.7422 110.708 19.7422C111.412 19.7422 112.045 19.5513 112.606 19.1694C113.168 18.7801 113.647 18.2897 114.044 17.6982L114.897 18.3159ZM110.607 14.0483C110.607 13.5991 110.585 13.1387 110.54 12.667C110.495 12.1953 110.417 11.8097 110.304 11.5103C110.177 11.1584 110.001 10.8926 109.776 10.7129C109.559 10.5332 109.282 10.4434 108.945 10.4434C108.369 10.4434 107.908 10.7354 107.564 11.3193C107.22 11.9033 107.032 12.828 107.002 14.0933L110.607 14.0483ZM130.508 20.7642L124.971 21.0898L124.803 20.9326V19.8994L124.724 19.877C124.357 20.2738 123.859 20.6219 123.23 20.9214C122.609 21.2134 121.98 21.3594 121.344 21.3594C119.831 21.3594 118.585 20.7979 117.604 19.6748C116.623 18.5518 116.133 17.0993 116.133 15.3174C116.133 13.7376 116.679 12.3825 117.772 11.252C118.873 10.1214 120.202 9.55615 121.759 9.55615C122.373 9.55615 122.95 9.62728 123.489 9.76953C124.028 9.9043 124.458 10.0653 124.78 10.2524V6.58008C124.78 6.30306 124.724 6.04476 124.612 5.80518C124.5 5.55811 124.35 5.36719 124.163 5.23242C123.931 5.06771 123.639 4.95166 123.287 4.88428C122.942 4.80941 122.594 4.757 122.242 4.72705V3.90723L128.307 3.61523L128.475 3.79492V18.5181C128.475 18.8026 128.52 19.0422 128.61 19.2368C128.707 19.4315 128.861 19.585 129.07 19.6973C129.228 19.7796 129.456 19.8395 129.755 19.877C130.062 19.9144 130.313 19.9368 130.508 19.9443V20.7642ZM124.78 18.7651V12.4199C124.728 12.2477 124.653 12.0568 124.556 11.8472C124.466 11.6375 124.339 11.4391 124.174 11.252C124.024 11.0947 123.822 10.9562 123.567 10.8364C123.32 10.7166 123.04 10.6567 122.725 10.6567C121.976 10.6567 121.362 11.0798 120.883 11.9258C120.404 12.7718 120.165 13.966 120.165 15.5083C120.165 16.1147 120.206 16.6613 120.288 17.1479C120.378 17.6271 120.531 18.0651 120.749 18.4619C120.966 18.8587 121.243 19.1694 121.58 19.394C121.924 19.6187 122.336 19.731 122.815 19.731C123.272 19.731 123.65 19.6449 123.949 19.4727C124.249 19.293 124.526 19.0571 124.78 18.7651Z" fill="white"/>
</svg>
