<svg width="49" height="41" viewBox="0 0 49 41" fill="none" xmlns="http://www.w3.org/2000/svg">
<path d="M0.86976 20.0146C0.869761 9.41256 9.64852 0.847982 20.4393 0.847983C29.0768 0.847983 36.4252 6.33554 39.014 13.9631C39.0805 14.1591 39.2781 14.2776 39.4831 14.2486C39.744 14.2117 39.9248 13.9529 39.8401 13.7034C37.1393 5.75034 29.4739 0.0146475 20.4393 0.0146467C9.151 0.0146457 2.7141e-06 8.96895 1.74846e-06 20.0146C7.8281e-07 31.0603 9.15099 40.0146 20.4393 40.0146C29.1664 40.0146 36.616 34.6627 39.5472 27.1301C39.6429 26.8842 39.4729 26.6178 39.2134 26.5703C39.0106 26.5332 38.809 26.6427 38.7342 26.8348C35.9252 34.0597 28.7839 39.1813 20.4393 39.1813C9.64852 39.1813 0.869759 30.6167 0.86976 20.0146Z" fill="white"/>
<path d="M48.3536 20.3682C48.5488 20.1729 48.5488 19.8564 48.3536 19.6611L45.1716 16.4791C44.9763 16.2839 44.6597 16.2839 44.4645 16.4791C44.2692 16.6744 44.2692 16.991 44.4645 17.1862L47.2929 20.0147L44.4645 22.8431C44.2692 23.0383 44.2692 23.3549 44.4645 23.5502C44.6597 23.7454 44.9763 23.7454 45.1716 23.5502L48.3536 20.3682ZM8 20.5146L48 20.5147L48 19.5147L8 19.5146L8 20.5146Z" fill="white"/>
</svg>
