<svg width="32" height="97" viewBox="0 0 32 97" fill="none" xmlns="http://www.w3.org/2000/svg">
<g clip-path="url(#clip0_366_15)">
<path d="M8.6736 75.3402L10.7148 75.3596C10.8749 74.1863 11.4207 73.0996 12.2662 72.2706C13.1118 71.4416 14.2091 70.9174 15.3853 70.7805L15.4054 68.7393L16.7386 68.7524L16.7193 70.7936C17.8925 70.9537 18.9791 71.4993 19.8081 72.3448C20.6371 73.1902 21.1614 74.2874 21.2983 75.4635L23.3396 75.4842L23.3265 76.8174L21.2852 76.7974C21.1254 77.9707 20.5797 79.0575 19.7343 79.8866C18.8888 80.7158 17.7916 81.2401 16.6154 81.3771L16.5947 83.4184L15.2614 83.4053L15.2815 81.364C14.1081 81.2041 13.0212 80.6584 12.192 79.8128C11.3629 78.9672 10.8386 77.8699 10.7018 76.6935L8.66052 76.6735L8.6736 75.3402ZM12.0002 76.0396C11.9898 77.1004 12.4012 78.1219 13.144 78.8794C13.8867 79.6368 14.9 80.0682 15.9608 80.0786C17.0216 80.089 18.0431 79.6776 18.8006 78.9349C19.558 78.1921 19.9894 77.1789 19.9998 76.1181C20.0103 75.0573 19.5988 74.0358 18.8561 73.2783C18.1133 72.5208 17.1001 72.0894 16.0393 72.079C14.9785 72.0686 13.957 72.48 13.1995 73.2228C12.442 73.9655 12.0106 74.9788 12.0002 76.0396ZM14.6668 76.0657C14.6702 75.7121 14.814 75.3744 15.0665 75.1268C15.319 74.8792 15.6595 74.7421 16.0131 74.7456C16.3667 74.749 16.7045 74.8928 16.9521 75.1453C17.1996 75.3978 17.3368 75.7383 17.3333 76.0919C17.3298 76.4455 17.186 76.7833 16.9335 77.0308C16.6811 77.2784 16.3406 77.4156 15.987 77.4121C15.6333 77.4086 15.2956 77.2648 15.048 77.0123C14.8004 76.7599 14.6633 76.4194 14.6668 76.0657Z" fill="white"/>
</g>
<path d="M21 60.978L21 59.058L17.64 59.058L17.64 54.906C17.64 53.394 16.74 51.894 14.82 51.894C13.332 51.894 12 52.794 12 54.906L12 60.978L21 60.978ZM16.08 59.058L13.56 59.058L13.56 55.59C13.56 54.342 13.932 53.814 14.82 53.814C15.708 53.814 16.08 54.306 16.08 55.506L16.08 59.058ZM21 49.4303L21 47.5103L12 47.5103L12 49.4303L21 49.4303ZM21.216 39.5927C21.216 36.3287 19.356 34.2527 16.5 34.2527C13.656 34.2527 11.796 36.3287 11.796 39.5927C11.796 42.8567 13.656 44.9327 16.5 44.9327C19.356 44.9327 21.216 42.8567 21.216 39.5927ZM16.5 43.0127C14.592 43.0127 13.356 41.6687 13.356 39.5927C13.356 37.5167 14.592 36.1727 16.5 36.1727C18.408 36.1727 19.632 37.5167 19.632 39.5927C19.632 41.6687 18.408 43.0127 16.5 43.0127ZM12 30.9073L12 33.1633L17.832 28.9513L21 28.9513L21 27.0313L17.832 27.0313L12 22.8433L12 25.0633L16.104 27.9673L12 30.9073ZM21 21.5153L18.84 20.4833L18.84 15.5393L21 14.5073L21 12.3713L12 17.0153L12 19.0073L21 23.6153L21 21.5153ZM17.34 19.7633L13.668 18.0113L17.34 16.2593L17.34 19.7633ZM11.22 19.1753L11.22 17.6033L9.288 15.6353L9.288 17.9153L11.22 19.1753Z" fill="white"/>
<rect x="0.5" y="95.6562" width="95.1562" height="31" rx="15.5" transform="rotate(-90 0.5 95.6562)" stroke="white"/>
<defs>
<clipPath id="clip0_366_15">
<rect width="16" height="16" fill="white" transform="translate(7.92188 84) rotate(-89.4377)"/>
</clipPath>
</defs>
</svg>
