<svg width="24" height="24" viewBox="0 0 24 24" fill="none" xmlns="http://www.w3.org/2000/svg">
<path d="M7.55536 5.77857C7.55512 6.25004 7.36761 6.7021 7.03406 7.03532C6.70051 7.36853 6.24826 7.55559 5.77679 7.55536C5.30532 7.55512 4.85325 7.36761 4.52004 7.03406C4.18683 6.70051 3.99976 6.24826 4 5.77679C4.00024 5.30532 4.18775 4.85325 4.5213 4.52004C4.85484 4.18683 5.3071 3.99976 5.77857 4C6.25004 4.00024 6.7021 4.18775 7.03532 4.5213C7.36853 4.85484 7.55559 5.3071 7.55536 5.77857ZM7.60869 8.87173H4.05333V20H7.60869V8.87173ZM13.2262 8.87173H9.68857V20H13.1906V14.1603C13.1906 10.9072 17.4304 10.605 17.4304 14.1603V20H20.9413V12.9515C20.9413 7.46736 14.6661 7.6718 13.1906 10.365L13.2262 8.87173Z" fill="white"/>
</svg>
