<svg width="131" height="46" viewBox="0 0 131 46" fill="none" xmlns="http://www.w3.org/2000/svg">
<path d="M19.4048 25.9624C19.1577 25.9849 18.9219 26.0298 18.6973 26.0972C18.4727 26.1646 18.2406 26.2694 18.001 26.4116C17.679 26.5988 17.4282 26.8009 17.2485 27.0181C17.0763 27.2277 16.9041 27.5197 16.7319 27.894C16.4998 28.4106 16.1742 29.1668 15.7549 30.1626C15.3356 31.1509 14.8564 32.2777 14.3174 33.543C13.8382 34.681 13.3179 35.9276 12.7563 37.2827C12.2023 38.6379 11.6707 39.9368 11.1616 41.1797H8.9043C7.85612 38.6117 6.78923 36.0024 5.70361 33.3521C4.618 30.7017 3.85433 28.8599 3.4126 27.8267C3.2404 27.4523 3.07194 27.1715 2.90723 26.9844C2.75 26.7897 2.49544 26.5913 2.14355 26.3892C1.889 26.2469 1.66439 26.1496 1.46973 26.0972C1.27507 26.0373 1.01676 25.9849 0.694824 25.9399V25.064H9.33105V25.9175C8.52246 26.0148 7.97217 26.1196 7.68018 26.2319C7.39567 26.3368 7.25342 26.4715 7.25342 26.6362C7.25342 26.7186 7.26465 26.8084 7.28711 26.9058C7.31706 26.9956 7.35824 27.1191 7.41064 27.2764C7.65023 27.9352 8.08447 29.0133 8.71338 30.5107C9.34229 32.0007 10.2744 34.2767 11.5098 37.3389C12.266 35.4746 12.8949 33.8986 13.3965 32.6108C13.8981 31.3231 14.3398 30.1851 14.7217 29.1968C14.9089 28.7176 15.0623 28.2721 15.1821 27.8604C15.3094 27.4411 15.373 27.1266 15.373 26.917C15.373 26.6774 15.2008 26.479 14.8564 26.3218C14.512 26.1571 13.8757 26.0373 12.9473 25.9624V25.064H19.4048V25.9624ZM26.7046 41H19.6069V40.1802C19.8016 40.1652 19.9925 40.1465 20.1797 40.124C20.3669 40.1016 20.5278 40.0641 20.6626 40.0117C20.9022 39.9219 21.0706 39.7946 21.168 39.6299C21.2653 39.4577 21.314 39.2331 21.314 38.9561V32.4199C21.314 32.1579 21.2541 31.9295 21.1343 31.7349C21.0145 31.5327 20.8647 31.3717 20.6851 31.252C20.5503 31.1621 20.3444 31.076 20.0674 30.9937C19.7979 30.9113 19.5508 30.8589 19.3262 30.8364V30.0166L24.8291 29.7246L24.9976 29.8931V38.8101C24.9976 39.0721 25.0537 39.2967 25.166 39.4839C25.2783 39.6636 25.4393 39.7983 25.6489 39.8882C25.7987 39.9556 25.9634 40.0155 26.1431 40.0679C26.3228 40.1203 26.5099 40.1577 26.7046 40.1802V41ZM25.0649 25.6816C25.0649 26.2507 24.8441 26.7373 24.4023 27.1416C23.9681 27.5384 23.4515 27.7368 22.8525 27.7368C22.2461 27.7368 21.722 27.5384 21.2803 27.1416C20.846 26.7373 20.6289 26.2507 20.6289 25.6816C20.6289 25.1126 20.846 24.626 21.2803 24.2217C21.722 23.8174 22.2461 23.6152 22.8525 23.6152C23.459 23.6152 23.9793 23.8174 24.4136 24.2217C24.8478 24.626 25.0649 25.1126 25.0649 25.6816ZM32.9375 41.3818C32.2113 41.3818 31.5 41.2733 30.8037 41.0562C30.1149 40.8465 29.5796 40.6219 29.1978 40.3823L28.8608 41.146H27.9849L27.8389 36.957H28.6587C28.771 37.2939 28.9582 37.6758 29.2202 38.1025C29.4823 38.5218 29.7817 38.8999 30.1187 39.2368C30.4705 39.5737 30.8711 39.8582 31.3203 40.0903C31.777 40.3224 32.2637 40.4385 32.7803 40.4385C33.4616 40.4385 33.967 40.3075 34.2964 40.0454C34.6333 39.7759 34.8018 39.3641 34.8018 38.8101C34.8018 38.5106 34.7269 38.2635 34.5771 38.0688C34.4274 37.8742 34.2215 37.7057 33.9595 37.5635C33.6675 37.4137 33.3455 37.2865 32.9937 37.1816C32.6493 37.0768 32.2225 36.9495 31.7134 36.7998C31.2043 36.6501 30.7663 36.5003 30.3994 36.3506C30.04 36.1934 29.6657 35.95 29.2764 35.6206C28.9395 35.3286 28.6699 34.9767 28.4678 34.5649C28.2656 34.1532 28.1646 33.6628 28.1646 33.0938C28.1646 32.0381 28.6063 31.1846 29.4897 30.5332C30.3807 29.8818 31.5449 29.5562 32.9824 29.5562C33.6637 29.5562 34.2889 29.6273 34.8579 29.7695C35.4344 29.9043 35.9173 30.054 36.3066 30.2188L36.5425 29.5562H37.396L37.5757 33.3857H36.7783C36.5163 32.6071 36.0671 31.937 35.4307 31.3755C34.7943 30.8065 34.1092 30.522 33.3755 30.522C32.799 30.522 32.346 30.6418 32.0166 30.8813C31.6872 31.1209 31.5225 31.4541 31.5225 31.8809C31.5225 32.4499 31.762 32.8617 32.2412 33.1162C32.7279 33.3708 33.4054 33.6104 34.2739 33.835C35.6141 34.1794 36.5949 34.651 37.2163 35.25C37.8377 35.8415 38.1484 36.5977 38.1484 37.5186C38.1484 38.7464 37.6655 39.6973 36.6997 40.3711C35.7414 41.0449 34.4873 41.3818 32.9375 41.3818ZM54.1855 40.7642L48.8286 41.0898L48.6602 40.9326V39.4614H48.5928C48.3382 39.6935 48.0874 39.9219 47.8403 40.1465C47.6007 40.3636 47.3125 40.562 46.9756 40.7417C46.5938 40.9438 46.2306 41.0936 45.8862 41.1909C45.5493 41.2882 45.0552 41.3369 44.4038 41.3369C43.2733 41.3369 42.4048 40.9963 41.7983 40.3149C41.1994 39.6336 40.8999 38.6715 40.8999 37.4287V32.375C40.8999 32.083 40.8438 31.8472 40.7314 31.6675C40.6191 31.4803 40.4694 31.3156 40.2822 31.1733C40.1325 31.061 39.9378 30.9824 39.6982 30.9375C39.4587 30.8851 39.2415 30.8514 39.0469 30.8364V30.0166L44.4937 29.7246L44.6172 29.8931V37.3613C44.6172 38.1325 44.7632 38.7015 45.0552 39.0684C45.3547 39.4352 45.7627 39.6187 46.2793 39.6187C46.8109 39.6187 47.2863 39.4801 47.7056 39.2031C48.1323 38.9261 48.443 38.6304 48.6377 38.3159V32.2627C48.6377 32.0081 48.589 31.7798 48.4917 31.5776C48.3944 31.3755 48.2521 31.2108 48.0649 31.0835C47.9302 30.9937 47.7355 30.9338 47.481 30.9038C47.2339 30.8739 46.9793 30.8514 46.7173 30.8364V30.0166L52.1641 29.7246L52.3325 29.8931V38.563C52.3325 38.825 52.3849 39.0496 52.4897 39.2368C52.5946 39.4165 52.748 39.57 52.9502 39.6973C53.0924 39.7871 53.2759 39.8507 53.5005 39.8882C53.7326 39.9181 53.9609 39.9368 54.1855 39.9443V40.7642ZM67.9316 40.7642C67.6022 40.9064 67.2129 41.0374 66.7637 41.1572C66.3145 41.277 65.839 41.3369 65.3374 41.3369C64.4165 41.3369 63.7389 41.2021 63.3047 40.9326C62.8704 40.6556 62.5747 40.2625 62.4175 39.7534H62.3501C62.0955 40.008 61.8485 40.2251 61.6089 40.4048C61.3768 40.5845 61.126 40.738 60.8564 40.8652C60.5046 41.0299 60.1639 41.1497 59.8345 41.2246C59.5125 41.307 59.0596 41.3481 58.4756 41.3481C57.6071 41.3481 56.8659 41.0936 56.252 40.5845C55.638 40.0679 55.3311 39.3866 55.3311 38.5405C55.3311 38.0539 55.3984 37.6421 55.5332 37.3052C55.668 36.9608 55.8589 36.6576 56.106 36.3955C56.3306 36.1559 56.5889 35.9575 56.8809 35.8003C57.1803 35.6431 57.506 35.4971 57.8579 35.3623C58.5317 35.1152 59.3403 34.8607 60.2837 34.5986C61.2271 34.3291 61.9159 34.0895 62.3501 33.8799V32.8018C62.3501 32.6146 62.3351 32.3675 62.3052 32.0605C62.2752 31.7536 62.2116 31.4953 62.1143 31.2856C62.0094 31.0461 61.8447 30.8439 61.6201 30.6792C61.3955 30.5145 61.0998 30.4321 60.7329 30.4321C60.4035 30.4321 60.1265 30.4808 59.9019 30.5781C59.6847 30.668 59.5088 30.7616 59.374 30.8589C59.3965 31.0086 59.4601 31.237 59.5649 31.5439C59.6698 31.8509 59.7222 32.1466 59.7222 32.4312C59.7222 32.5584 59.6885 32.7194 59.6211 32.9141C59.5537 33.1012 59.4564 33.251 59.3291 33.3633C59.1569 33.513 58.9622 33.6291 58.7451 33.7114C58.5355 33.7938 58.2098 33.835 57.7681 33.835C57.1392 33.835 56.6637 33.6852 56.3418 33.3857C56.0199 33.0788 55.8589 32.682 55.8589 32.1953C55.8589 31.776 56.0236 31.4017 56.353 31.0723C56.6899 30.7354 57.098 30.4583 57.5771 30.2412C58.0488 30.0166 58.5916 29.8444 59.2056 29.7246C59.8195 29.5973 60.3885 29.5337 60.9126 29.5337C61.6388 29.5337 62.3052 29.5786 62.9116 29.6685C63.5181 29.7508 64.0646 29.9268 64.5513 30.1963C65.0155 30.4583 65.3823 30.8402 65.6519 31.3418C65.9289 31.8359 66.0674 32.4836 66.0674 33.2847C66.0674 34.1307 66.0487 35.134 66.0112 36.2944C65.9813 37.4549 65.9663 38.2186 65.9663 38.5854C65.9663 38.9224 66.015 39.1882 66.1123 39.3828C66.2171 39.5775 66.3743 39.7235 66.584 39.8208C66.7113 39.8807 66.9097 39.9181 67.1792 39.9331C67.4562 39.9406 67.707 39.9443 67.9316 39.9443V40.7642ZM62.3501 34.9131C61.9308 35.0553 61.5153 35.2201 61.1035 35.4072C60.6917 35.5869 60.3548 35.7778 60.0928 35.98C59.8158 36.1896 59.5986 36.4591 59.4414 36.7886C59.2842 37.1105 59.2056 37.4924 59.2056 37.9341C59.2056 38.5181 59.3366 38.9411 59.5986 39.2031C59.8682 39.4652 60.1976 39.5962 60.5869 39.5962C60.9987 39.5962 61.3356 39.5138 61.5977 39.3491C61.8672 39.1769 62.103 38.9673 62.3052 38.7202L62.3501 34.9131ZM75.6357 41H68.5942V40.1802C68.7889 40.1652 68.9761 40.1465 69.1558 40.124C69.3429 40.1016 69.5076 40.0641 69.6499 40.0117C69.8895 39.9219 70.0505 39.7946 70.1328 39.6299C70.2227 39.4577 70.2676 39.2331 70.2676 38.9561V26.5127C70.2676 26.2282 70.2077 25.9661 70.0879 25.7266C69.9756 25.4795 69.8221 25.2923 69.6274 25.165C69.4777 25.0677 69.2493 24.9741 68.9424 24.8843C68.6429 24.7944 68.3771 24.742 68.145 24.7271V23.9072L73.7939 23.6152L73.9624 23.7949V38.8101C73.9624 39.0871 74.0111 39.3117 74.1084 39.4839C74.2057 39.6561 74.363 39.7909 74.5801 39.8882C74.7298 39.9556 74.887 40.0155 75.0518 40.0679C75.2165 40.1203 75.4111 40.1577 75.6357 40.1802V41ZM88.7979 38.3159C88.5358 38.7427 88.2176 39.147 87.8433 39.5288C87.4764 39.9032 87.0571 40.2251 86.5854 40.4946C86.0838 40.7791 85.5747 40.9925 85.0581 41.1348C84.549 41.2845 83.9613 41.3594 83.2949 41.3594C82.1868 41.3594 81.2285 41.2021 80.4199 40.8877C79.6188 40.5732 78.9562 40.1502 78.4321 39.6187C77.908 39.0871 77.515 38.4619 77.2529 37.7432C76.9984 37.0169 76.8711 36.2308 76.8711 35.3848C76.8711 34.6211 77.0096 33.8911 77.2866 33.1948C77.5711 32.491 77.9717 31.8659 78.4883 31.3193C78.9974 30.7878 79.6375 30.3573 80.4087 30.0278C81.1873 29.6984 82.0558 29.5337 83.0142 29.5337C84.0623 29.5337 84.9233 29.661 85.5972 29.9155C86.271 30.1701 86.8288 30.522 87.2705 30.9712C87.6973 31.3979 88.008 31.9033 88.2026 32.4873C88.3973 33.0638 88.4946 33.6702 88.4946 34.3066V35.0366H80.9028C80.9028 36.5715 81.1986 37.7394 81.79 38.5405C82.3815 39.3416 83.3211 39.7422 84.6089 39.7422C85.3127 39.7422 85.9453 39.5513 86.5068 39.1694C87.0684 38.7801 87.5475 38.2897 87.9443 37.6982L88.7979 38.3159ZM84.5078 34.0483C84.5078 33.5991 84.4854 33.1387 84.4404 32.667C84.3955 32.1953 84.3169 31.8097 84.2046 31.5103C84.0773 31.1584 83.9014 30.8926 83.6768 30.7129C83.4596 30.5332 83.1826 30.4434 82.8457 30.4434C82.2692 30.4434 81.8088 30.7354 81.4644 31.3193C81.12 31.9033 80.9328 32.828 80.9028 34.0933L84.5078 34.0483ZM102.578 30.6792C102.241 30.7316 101.911 30.8589 101.589 31.061C101.275 31.2632 101.013 31.5776 100.803 32.0044C100.159 33.367 99.4967 34.8195 98.8154 36.3618C98.1341 37.8966 97.3779 39.5588 96.5469 41.3481C96.0827 42.3514 95.6335 43.1525 95.1992 43.7515C94.765 44.3504 94.3569 44.8109 93.9751 45.1328C93.6157 45.4323 93.2601 45.6494 92.9082 45.7842C92.5563 45.9189 92.2007 45.9863 91.8413 45.9863C91.13 45.9863 90.5535 45.7879 90.1118 45.3911C89.6776 44.9943 89.4604 44.5488 89.4604 44.0547C89.4604 43.8451 89.4829 43.6504 89.5278 43.4707C89.5802 43.291 89.6851 43.1038 89.8423 42.9092C89.9621 42.7445 90.1455 42.6022 90.3926 42.4824C90.6471 42.3701 90.9316 42.314 91.2461 42.314C91.6654 42.314 92.0659 42.46 92.4478 42.752C92.8296 43.0439 93.2264 43.4482 93.6382 43.9648C93.8853 43.7178 94.1885 43.3472 94.5479 42.853C94.9147 42.3664 95.1842 41.8647 95.3564 41.3481C94.4655 39.4764 93.6756 37.8555 92.9868 36.4854C92.298 35.1077 91.5269 33.5729 90.6733 31.8809C90.4862 31.5215 90.2354 31.2445 89.9209 31.0498C89.6064 30.8477 89.2733 30.7241 88.9214 30.6792V29.8594H95.7944V30.6792C95.5399 30.6867 95.2441 30.7428 94.9072 30.8477C94.5778 30.9525 94.4131 31.0872 94.4131 31.252C94.4131 31.3118 94.4243 31.3792 94.4468 31.4541C94.4692 31.5215 94.5104 31.6226 94.5703 31.7573C94.8249 32.2814 95.1842 33.0114 95.6484 33.9473C96.1201 34.8757 96.6667 35.965 97.2881 37.2153C97.7523 36.1522 98.1453 35.2388 98.4673 34.4751C98.7967 33.7039 99.1149 32.9478 99.4219 32.2065C99.4967 32.0194 99.5379 31.8734 99.5454 31.7686C99.5604 31.6562 99.5679 31.5814 99.5679 31.5439C99.5679 31.4092 99.5005 31.2931 99.3657 31.1958C99.2384 31.091 99.085 31.0011 98.9053 30.9263C98.7181 30.8514 98.5384 30.7952 98.3662 30.7578C98.194 30.7204 98.0518 30.6942 97.9395 30.6792V29.8594H102.578V30.6792ZM114.897 38.3159C114.635 38.7427 114.317 39.147 113.943 39.5288C113.576 39.9032 113.157 40.2251 112.685 40.4946C112.183 40.7791 111.674 40.9925 111.158 41.1348C110.649 41.2845 110.061 41.3594 109.395 41.3594C108.286 41.3594 107.328 41.2021 106.52 40.8877C105.718 40.5732 105.056 40.1502 104.532 39.6187C104.008 39.0871 103.615 38.4619 103.353 37.7432C103.098 37.0169 102.971 36.2308 102.971 35.3848C102.971 34.6211 103.109 33.8911 103.386 33.1948C103.671 32.491 104.071 31.8659 104.588 31.3193C105.097 30.7878 105.737 30.3573 106.508 30.0278C107.287 29.6984 108.155 29.5337 109.114 29.5337C110.162 29.5337 111.023 29.661 111.697 29.9155C112.371 30.1701 112.928 30.522 113.37 30.9712C113.797 31.3979 114.108 31.9033 114.302 32.4873C114.497 33.0638 114.594 33.6702 114.594 34.3066V35.0366H107.002C107.002 36.5715 107.298 37.7394 107.89 38.5405C108.481 39.3416 109.421 39.7422 110.708 39.7422C111.412 39.7422 112.045 39.5513 112.606 39.1694C113.168 38.7801 113.647 38.2897 114.044 37.6982L114.897 38.3159ZM110.607 34.0483C110.607 33.5991 110.585 33.1387 110.54 32.667C110.495 32.1953 110.417 31.8097 110.304 31.5103C110.177 31.1584 110.001 30.8926 109.776 30.7129C109.559 30.5332 109.282 30.4434 108.945 30.4434C108.369 30.4434 107.908 30.7354 107.564 31.3193C107.22 31.9033 107.032 32.828 107.002 34.0933L110.607 34.0483ZM130.508 40.7642L124.971 41.0898L124.803 40.9326V39.8994L124.724 39.877C124.357 40.2738 123.859 40.6219 123.23 40.9214C122.609 41.2134 121.98 41.3594 121.344 41.3594C119.831 41.3594 118.585 40.7979 117.604 39.6748C116.623 38.5518 116.133 37.0993 116.133 35.3174C116.133 33.7376 116.679 32.3825 117.772 31.252C118.873 30.1214 120.202 29.5562 121.759 29.5562C122.373 29.5562 122.95 29.6273 123.489 29.7695C124.028 29.9043 124.458 30.0653 124.78 30.2524V26.5801C124.78 26.3031 124.724 26.0448 124.612 25.8052C124.5 25.5581 124.35 25.3672 124.163 25.2324C123.931 25.0677 123.639 24.9517 123.287 24.8843C122.942 24.8094 122.594 24.757 122.242 24.7271V23.9072L128.307 23.6152L128.475 23.7949V38.5181C128.475 38.8026 128.52 39.0422 128.61 39.2368C128.707 39.4315 128.861 39.585 129.07 39.6973C129.228 39.7796 129.456 39.8395 129.755 39.877C130.062 39.9144 130.313 39.9368 130.508 39.9443V40.7642ZM124.78 38.7651V32.4199C124.728 32.2477 124.653 32.0568 124.556 31.8472C124.466 31.6375 124.339 31.4391 124.174 31.252C124.024 31.0947 123.822 30.9562 123.567 30.8364C123.32 30.7166 123.04 30.6567 122.725 30.6567C121.976 30.6567 121.362 31.0798 120.883 31.9258C120.404 32.7718 120.165 33.966 120.165 35.5083C120.165 36.1147 120.206 36.6613 120.288 37.1479C120.378 37.6271 120.531 38.0651 120.749 38.4619C120.966 38.8587 121.243 39.1694 121.58 39.394C121.924 39.6187 122.336 39.731 122.815 39.731C123.272 39.731 123.65 39.6449 123.949 39.4727C124.249 39.293 124.526 39.0571 124.78 38.7651Z" fill="white"/>
<path d="M7.7 7.01C7.7 8.93 9.23 10.18 11.59 10.18C13.98 10.18 15.46 8.89 15.46 6.81V2.5H13.86V6.92C13.86 8.1 12.98 8.86 11.6 8.86C10.2 8.86 9.3 8.1 9.3 6.92V2.5H7.7V7.01ZM17.8602 10H19.4602V4.54L24.3802 10H25.9802V2.5H24.3802V7.96L19.4602 2.5H17.8602V10ZM31.8328 10H33.4328V7.2H36.8928C38.1528 7.2 39.4028 6.45 39.4028 4.85C39.4028 3.61 38.6528 2.5 36.8928 2.5H31.8328V10ZM33.4328 5.9V3.8H36.3228C37.3628 3.8 37.8028 4.11 37.8028 4.85C37.8028 5.59 37.3928 5.9 36.3928 5.9H33.4328ZM41.4559 10H43.0559V7.05H44.9959L47.2759 10H49.2359L46.7459 6.91C48.2359 6.84 49.1259 6 49.1259 4.77C49.1259 3.44 48.1459 2.5 46.3859 2.5H41.4559V10ZM43.0559 5.75V3.8H46.0459C47.0859 3.8 47.5259 4.09 47.5259 4.78C47.5259 5.46 47.1159 5.75 46.1159 5.75H43.0559ZM55.4547 10.18C58.1747 10.18 59.9047 8.63 59.9047 6.25C59.9047 3.88 58.1747 2.33 55.4547 2.33C52.7347 2.33 51.0047 3.88 51.0047 6.25C51.0047 8.63 52.7347 10.18 55.4547 10.18ZM52.6047 6.25C52.6047 4.66 53.7247 3.63 55.4547 3.63C57.1847 3.63 58.3047 4.66 58.3047 6.25C58.3047 7.84 57.1847 8.86 55.4547 8.86C53.7247 8.86 52.6047 7.84 52.6047 6.25ZM61.7605 6.24C61.7605 8.68 63.5705 10.18 66.5405 10.18C67.8705 10.18 69.0905 9.85 69.8605 9.27V5.75H66.1905V7H68.3605V8.58C67.8405 8.75 67.2505 8.84 66.6505 8.84C64.4905 8.84 63.3605 7.94 63.3605 6.24C63.3605 4.52 64.5205 3.61 66.6605 3.61C67.8305 3.61 68.8705 3.88 69.5505 4.24L69.4405 2.81C68.7205 2.53 67.7205 2.33 66.6005 2.33C63.5905 2.33 61.7605 3.82 61.7605 6.24ZM72.0633 10H78.8933V8.7H73.6633V6.82H78.2733V5.56H73.6633V3.8H78.8133V2.5H72.0633V10ZM80.7418 3.8H83.6918V10H85.2918V3.8H88.2418V2.5H80.7418V3.8ZM90.0426 3.8H92.9926V10H94.5926V3.8H97.5426V2.5H90.0426V3.8ZM103.443 10.18C106.163 10.18 107.893 8.63 107.893 6.25C107.893 3.88 106.163 2.33 103.443 2.33C100.723 2.33 98.993 3.88 98.993 6.25C98.993 8.63 100.723 10.18 103.443 10.18ZM100.593 6.25C100.593 4.66 101.713 3.63 103.443 3.63C105.173 3.63 106.293 4.66 106.293 6.25C106.293 7.84 105.173 8.86 103.443 8.86C101.713 8.86 100.593 7.84 100.593 6.25ZM113.499 10H117.239C119.649 10 121.249 8.5 121.249 6.25C121.249 4 119.649 2.5 117.239 2.5H113.499V10ZM115.099 8.7V3.8H117.199C118.699 3.8 119.649 4.79 119.649 6.29C119.649 7.77 118.719 8.7 117.199 8.7H115.099ZM123.395 10H124.995V2.5H123.395V10Z" fill="white"/>
</svg>
