<svg width="181" height="36" viewBox="0 0 181 36" fill="none" xmlns="http://www.w3.org/2000/svg">
<path d="M26.1719 8.07812C25.8281 8.10938 25.5 8.17188 25.1875 8.26562C24.875 8.35938 24.5521 8.50521 24.2188 8.70312C23.7708 8.96354 23.4219 9.24479 23.1719 9.54688C22.9323 9.83854 22.6927 10.2448 22.4531 10.7656C22.1302 11.4844 21.6771 12.5365 21.0938 13.9219C20.5104 15.2969 19.8438 16.8646 19.0938 18.625C18.4271 20.2083 17.7031 21.9427 16.9219 23.8281C16.151 25.7135 15.4115 27.5208 14.7031 29.25H11.5625C10.1042 25.6771 8.61979 22.0469 7.10938 18.3594C5.59896 14.6719 4.53646 12.1094 3.92188 10.6719C3.68229 10.151 3.44792 9.76042 3.21875 9.5C3 9.22917 2.64583 8.95312 2.15625 8.67188C1.80208 8.47396 1.48958 8.33854 1.21875 8.26562C0.947917 8.18229 0.588542 8.10938 0.140625 8.04688V6.82812H12.1562V8.01562C11.0312 8.15104 10.2656 8.29688 9.85938 8.45312C9.46354 8.59896 9.26562 8.78646 9.26562 9.01562C9.26562 9.13021 9.28125 9.25521 9.3125 9.39062C9.35417 9.51562 9.41146 9.6875 9.48438 9.90625C9.81771 10.8229 10.4219 12.3229 11.2969 14.4062C12.1719 16.4792 13.4688 19.6458 15.1875 23.9062C16.2396 21.3125 17.1146 19.1198 17.8125 17.3281C18.5104 15.5365 19.125 13.9531 19.6562 12.5781C19.9167 11.9115 20.1302 11.2917 20.2969 10.7188C20.474 10.1354 20.5625 9.69792 20.5625 9.40625C20.5625 9.07292 20.3229 8.79688 19.8438 8.57812C19.3646 8.34896 18.4792 8.18229 17.1875 8.07812V6.82812H26.1719V8.07812ZM36.3281 29H26.4531V27.8594C26.724 27.8385 26.9896 27.8125 27.25 27.7812C27.5104 27.75 27.7344 27.6979 27.9219 27.625C28.2552 27.5 28.4896 27.3229 28.625 27.0938C28.7604 26.8542 28.8281 26.5417 28.8281 26.1562V17.0625C28.8281 16.6979 28.7448 16.3802 28.5781 16.1094C28.4115 15.8281 28.2031 15.6042 27.9531 15.4375C27.7656 15.3125 27.4792 15.1927 27.0938 15.0781C26.7188 14.9635 26.375 14.8906 26.0625 14.8594V13.7188L33.7188 13.3125L33.9531 13.5469V25.9531C33.9531 26.3177 34.0312 26.6302 34.1875 26.8906C34.3438 27.1406 34.5677 27.3281 34.8594 27.4531C35.0677 27.5469 35.2969 27.6302 35.5469 27.7031C35.7969 27.776 36.0573 27.8281 36.3281 27.8594V29ZM34.0469 7.6875C34.0469 8.47917 33.7396 9.15625 33.125 9.71875C32.5208 10.2708 31.8021 10.5469 30.9688 10.5469C30.125 10.5469 29.3958 10.2708 28.7812 9.71875C28.1771 9.15625 27.875 8.47917 27.875 7.6875C27.875 6.89583 28.1771 6.21875 28.7812 5.65625C29.3958 5.09375 30.125 4.8125 30.9688 4.8125C31.8125 4.8125 32.5365 5.09375 33.1406 5.65625C33.7448 6.21875 34.0469 6.89583 34.0469 7.6875ZM45 29.5312C43.9896 29.5312 43 29.3802 42.0312 29.0781C41.0729 28.7865 40.3281 28.474 39.7969 28.1406L39.3281 29.2031H38.1094L37.9062 23.375H39.0469C39.2031 23.8438 39.4635 24.375 39.8281 24.9688C40.1927 25.5521 40.6094 26.0781 41.0781 26.5469C41.5677 27.0156 42.125 27.4115 42.75 27.7344C43.3854 28.0573 44.0625 28.2188 44.7812 28.2188C45.7292 28.2188 46.4323 28.0365 46.8906 27.6719C47.3594 27.2969 47.5938 26.724 47.5938 25.9531C47.5938 25.5365 47.4896 25.1927 47.2812 24.9219C47.0729 24.651 46.7865 24.4167 46.4219 24.2188C46.0156 24.0104 45.5677 23.8333 45.0781 23.6875C44.599 23.5417 44.0052 23.3646 43.2969 23.1562C42.5885 22.9479 41.9792 22.7396 41.4688 22.5312C40.9688 22.3125 40.4479 21.974 39.9062 21.5156C39.4375 21.1094 39.0625 20.6198 38.7812 20.0469C38.5 19.474 38.3594 18.7917 38.3594 18C38.3594 16.5312 38.974 15.3438 40.2031 14.4375C41.4427 13.5312 43.0625 13.0781 45.0625 13.0781C46.0104 13.0781 46.8802 13.1771 47.6719 13.375C48.474 13.5625 49.1458 13.7708 49.6875 14L50.0156 13.0781H51.2031L51.4531 18.4062H50.3438C49.9792 17.3229 49.3542 16.3906 48.4688 15.6094C47.5833 14.8177 46.6302 14.4219 45.6094 14.4219C44.8073 14.4219 44.1771 14.5885 43.7188 14.9219C43.2604 15.2552 43.0312 15.7188 43.0312 16.3125C43.0312 17.1042 43.3646 17.6771 44.0312 18.0312C44.7083 18.3854 45.651 18.7188 46.8594 19.0312C48.724 19.5104 50.0885 20.1667 50.9531 21C51.8177 21.8229 52.25 22.875 52.25 24.1562C52.25 25.8646 51.5781 27.1875 50.2344 28.125C48.901 29.0625 47.1562 29.5312 45 29.5312ZM74.5625 28.6719L67.1094 29.125L66.875 28.9062V26.8594H66.7812C66.4271 27.1823 66.0781 27.5 65.7344 27.8125C65.401 28.1146 65 28.3906 64.5312 28.6406C64 28.9219 63.4948 29.1302 63.0156 29.2656C62.5469 29.401 61.8594 29.4688 60.9531 29.4688C59.3802 29.4688 58.1719 28.9948 57.3281 28.0469C56.4948 27.099 56.0781 25.7604 56.0781 24.0312V17C56.0781 16.5938 56 16.2656 55.8438 16.0156C55.6875 15.7552 55.4792 15.526 55.2188 15.3281C55.0104 15.1719 54.7396 15.0625 54.4062 15C54.0729 14.9271 53.7708 14.8802 53.5 14.8594V13.7188L61.0781 13.3125L61.25 13.5469V23.9375C61.25 25.0104 61.4531 25.8021 61.8594 26.3125C62.276 26.8229 62.8438 27.0781 63.5625 27.0781C64.3021 27.0781 64.9635 26.8854 65.5469 26.5C66.1406 26.1146 66.5729 25.7031 66.8438 25.2656V16.8438C66.8438 16.4896 66.776 16.1719 66.6406 15.8906C66.5052 15.6094 66.3073 15.3802 66.0469 15.2031C65.8594 15.0781 65.5885 14.9948 65.2344 14.9531C64.8906 14.9115 64.5365 14.8802 64.1719 14.8594V13.7188L71.75 13.3125L71.9844 13.5469V25.6094C71.9844 25.974 72.0573 26.2865 72.2031 26.5469C72.349 26.7969 72.5625 27.0104 72.8438 27.1875C73.0417 27.3125 73.2969 27.401 73.6094 27.4531C73.9323 27.4948 74.25 27.5208 74.5625 27.5312V28.6719ZM93.6875 28.6719C93.2292 28.8698 92.6875 29.0521 92.0625 29.2188C91.4375 29.3854 90.776 29.4688 90.0781 29.4688C88.7969 29.4688 87.8542 29.2812 87.25 28.9062C86.6458 28.5208 86.2344 27.974 86.0156 27.2656H85.9219C85.5677 27.6198 85.224 27.9219 84.8906 28.1719C84.5677 28.4219 84.2188 28.6354 83.8438 28.8125C83.3542 29.0417 82.8802 29.2083 82.4219 29.3125C81.974 29.4271 81.3438 29.4844 80.5312 29.4844C79.3229 29.4844 78.2917 29.1302 77.4375 28.4219C76.5833 27.7031 76.1562 26.7552 76.1562 25.5781C76.1562 24.901 76.25 24.3281 76.4375 23.8594C76.625 23.3802 76.8906 22.9583 77.2344 22.5938C77.5469 22.2604 77.9062 21.9844 78.3125 21.7656C78.7292 21.5469 79.1823 21.3438 79.6719 21.1562C80.6094 20.8125 81.7344 20.4583 83.0469 20.0938C84.3594 19.7188 85.3177 19.3854 85.9219 19.0938V17.5938C85.9219 17.3333 85.901 16.9896 85.8594 16.5625C85.8177 16.1354 85.7292 15.776 85.5938 15.4844C85.4479 15.151 85.2188 14.8698 84.9062 14.6406C84.5938 14.4115 84.1823 14.2969 83.6719 14.2969C83.2135 14.2969 82.8281 14.3646 82.5156 14.5C82.2135 14.625 81.9688 14.7552 81.7812 14.8906C81.8125 15.099 81.901 15.4167 82.0469 15.8438C82.1927 16.2708 82.2656 16.6823 82.2656 17.0781C82.2656 17.2552 82.2188 17.4792 82.125 17.75C82.0312 18.0104 81.8958 18.2188 81.7188 18.375C81.4792 18.5833 81.2083 18.7448 80.9062 18.8594C80.6146 18.974 80.1615 19.0312 79.5469 19.0312C78.6719 19.0312 78.0104 18.8229 77.5625 18.4062C77.1146 17.9792 76.8906 17.4271 76.8906 16.75C76.8906 16.1667 77.1198 15.6458 77.5781 15.1875C78.0469 14.7188 78.6146 14.3333 79.2812 14.0312C79.9375 13.7188 80.6927 13.4792 81.5469 13.3125C82.401 13.1354 83.1927 13.0469 83.9219 13.0469C84.9323 13.0469 85.8594 13.1094 86.7031 13.2344C87.5469 13.349 88.3073 13.5938 88.9844 13.9688C89.6302 14.3333 90.1406 14.8646 90.5156 15.5625C90.901 16.25 91.0938 17.151 91.0938 18.2656C91.0938 19.4427 91.0677 20.8385 91.0156 22.4531C90.974 24.0677 90.9531 25.1302 90.9531 25.6406C90.9531 26.1094 91.0208 26.4792 91.1562 26.75C91.3021 27.0208 91.5208 27.224 91.8125 27.3594C91.9896 27.4427 92.2656 27.4948 92.6406 27.5156C93.026 27.526 93.375 27.5312 93.6875 27.5312V28.6719ZM85.9219 20.5312C85.3385 20.7292 84.7604 20.9583 84.1875 21.2188C83.6146 21.4688 83.1458 21.7344 82.7812 22.0156C82.3958 22.3073 82.0938 22.6823 81.875 23.1406C81.6562 23.5885 81.5469 24.1198 81.5469 24.7344C81.5469 25.5469 81.7292 26.1354 82.0938 26.5C82.4688 26.8646 82.9271 27.0469 83.4688 27.0469C84.0417 27.0469 84.5104 26.9323 84.875 26.7031C85.25 26.4635 85.5781 26.1719 85.8594 25.8281L85.9219 20.5312ZM104.406 29H94.6094V27.8594C94.8802 27.8385 95.1406 27.8125 95.3906 27.7812C95.651 27.75 95.8802 27.6979 96.0781 27.625C96.4115 27.5 96.6354 27.3229 96.75 27.0938C96.875 26.8542 96.9375 26.5417 96.9375 26.1562V8.84375C96.9375 8.44792 96.8542 8.08333 96.6875 7.75C96.5312 7.40625 96.3177 7.14583 96.0469 6.96875C95.8385 6.83333 95.5208 6.70312 95.0938 6.57812C94.6771 6.45312 94.3073 6.38021 93.9844 6.35938V5.21875L101.844 4.8125L102.078 5.0625V25.9531C102.078 26.3385 102.146 26.651 102.281 26.8906C102.417 27.1302 102.635 27.3177 102.938 27.4531C103.146 27.5469 103.365 27.6302 103.594 27.7031C103.823 27.776 104.094 27.8281 104.406 27.8594V29ZM122.719 25.2656C122.354 25.8594 121.911 26.4219 121.391 26.9531C120.88 27.474 120.297 27.9219 119.641 28.2969C118.943 28.6927 118.234 28.9896 117.516 29.1875C116.807 29.3958 115.99 29.5 115.062 29.5C113.521 29.5 112.188 29.2812 111.062 28.8438C109.948 28.4062 109.026 27.8177 108.297 27.0781C107.568 26.3385 107.021 25.4688 106.656 24.4688C106.302 23.4583 106.125 22.3646 106.125 21.1875C106.125 20.125 106.318 19.1094 106.703 18.1406C107.099 17.1615 107.656 16.2917 108.375 15.5312C109.083 14.7917 109.974 14.1927 111.047 13.7344C112.13 13.276 113.339 13.0469 114.672 13.0469C116.13 13.0469 117.328 13.224 118.266 13.5781C119.203 13.9323 119.979 14.4219 120.594 15.0469C121.188 15.6406 121.62 16.3438 121.891 17.1562C122.161 17.9583 122.297 18.8021 122.297 19.6875V20.7031H111.734C111.734 22.8385 112.146 24.4635 112.969 25.5781C113.792 26.6927 115.099 27.25 116.891 27.25C117.87 27.25 118.75 26.9844 119.531 26.4531C120.312 25.9115 120.979 25.2292 121.531 24.4062L122.719 25.2656ZM116.75 19.3281C116.75 18.7031 116.719 18.0625 116.656 17.4062C116.594 16.75 116.484 16.2135 116.328 15.7969C116.151 15.3073 115.906 14.9375 115.594 14.6875C115.292 14.4375 114.906 14.3125 114.438 14.3125C113.635 14.3125 112.995 14.7188 112.516 15.5312C112.036 16.3438 111.776 17.6302 111.734 19.3906L116.75 19.3281ZM141.891 14.6406C141.422 14.7135 140.964 14.8906 140.516 15.1719C140.078 15.4531 139.714 15.8906 139.422 16.4844C138.526 18.3802 137.604 20.401 136.656 22.5469C135.708 24.6823 134.656 26.9948 133.5 29.4844C132.854 30.8802 132.229 31.9948 131.625 32.8281C131.021 33.6615 130.453 34.3021 129.922 34.75C129.422 35.1667 128.927 35.4688 128.438 35.6562C127.948 35.8438 127.453 35.9375 126.953 35.9375C125.964 35.9375 125.161 35.6615 124.547 35.1094C123.943 34.5573 123.641 33.9375 123.641 33.25C123.641 32.9583 123.672 32.6875 123.734 32.4375C123.807 32.1875 123.953 31.9271 124.172 31.6562C124.339 31.4271 124.594 31.2292 124.938 31.0625C125.292 30.9062 125.688 30.8281 126.125 30.8281C126.708 30.8281 127.266 31.0312 127.797 31.4375C128.328 31.8438 128.88 32.4062 129.453 33.125C129.797 32.7812 130.219 32.2656 130.719 31.5781C131.229 30.901 131.604 30.2031 131.844 29.4844C130.604 26.8802 129.505 24.625 128.547 22.7188C127.589 20.8021 126.516 18.6667 125.328 16.3125C125.068 15.8125 124.719 15.4271 124.281 15.1562C123.844 14.875 123.38 14.7031 122.891 14.6406V13.5H132.453V14.6406C132.099 14.651 131.688 14.7292 131.219 14.875C130.76 15.0208 130.531 15.2083 130.531 15.4375C130.531 15.5208 130.547 15.6146 130.578 15.7188C130.609 15.8125 130.667 15.9531 130.75 16.1406C131.104 16.8698 131.604 17.8854 132.25 19.1875C132.906 20.4792 133.667 21.9948 134.531 23.7344C135.177 22.2552 135.724 20.9844 136.172 19.9219C136.63 18.849 137.073 17.7969 137.5 16.7656C137.604 16.5052 137.661 16.3021 137.672 16.1562C137.693 16 137.703 15.8958 137.703 15.8438C137.703 15.6562 137.609 15.4948 137.422 15.3594C137.245 15.2135 137.031 15.0885 136.781 14.9844C136.521 14.8802 136.271 14.8021 136.031 14.75C135.792 14.6979 135.594 14.6615 135.438 14.6406V13.5H141.891V14.6406ZM159.031 25.2656C158.667 25.8594 158.224 26.4219 157.703 26.9531C157.193 27.474 156.609 27.9219 155.953 28.2969C155.255 28.6927 154.547 28.9896 153.828 29.1875C153.12 29.3958 152.302 29.5 151.375 29.5C149.833 29.5 148.5 29.2812 147.375 28.8438C146.26 28.4062 145.339 27.8177 144.609 27.0781C143.88 26.3385 143.333 25.4688 142.969 24.4688C142.615 23.4583 142.438 22.3646 142.438 21.1875C142.438 20.125 142.63 19.1094 143.016 18.1406C143.411 17.1615 143.969 16.2917 144.688 15.5312C145.396 14.7917 146.286 14.1927 147.359 13.7344C148.443 13.276 149.651 13.0469 150.984 13.0469C152.443 13.0469 153.641 13.224 154.578 13.5781C155.516 13.9323 156.292 14.4219 156.906 15.0469C157.5 15.6406 157.932 16.3438 158.203 17.1562C158.474 17.9583 158.609 18.8021 158.609 19.6875V20.7031H148.047C148.047 22.8385 148.458 24.4635 149.281 25.5781C150.104 26.6927 151.411 27.25 153.203 27.25C154.182 27.25 155.062 26.9844 155.844 26.4531C156.625 25.9115 157.292 25.2292 157.844 24.4062L159.031 25.2656ZM153.062 19.3281C153.062 18.7031 153.031 18.0625 152.969 17.4062C152.906 16.75 152.797 16.2135 152.641 15.7969C152.464 15.3073 152.219 14.9375 151.906 14.6875C151.604 14.4375 151.219 14.3125 150.75 14.3125C149.948 14.3125 149.307 14.7188 148.828 15.5312C148.349 16.3438 148.089 17.6302 148.047 19.3906L153.062 19.3281ZM180.75 28.6719L173.047 29.125L172.812 28.9062V27.4688L172.703 27.4375C172.193 27.9896 171.5 28.474 170.625 28.8906C169.76 29.2969 168.885 29.5 168 29.5C165.896 29.5 164.161 28.7188 162.797 27.1562C161.432 25.5938 160.75 23.5729 160.75 21.0938C160.75 18.8958 161.51 17.0104 163.031 15.4375C164.562 13.8646 166.411 13.0781 168.578 13.0781C169.432 13.0781 170.234 13.1771 170.984 13.375C171.734 13.5625 172.333 13.7865 172.781 14.0469V8.9375C172.781 8.55208 172.703 8.19271 172.547 7.85938C172.391 7.51562 172.182 7.25 171.922 7.0625C171.599 6.83333 171.193 6.67188 170.703 6.57812C170.224 6.47396 169.74 6.40104 169.25 6.35938V5.21875L177.688 4.8125L177.922 5.0625V25.5469C177.922 25.9427 177.984 26.276 178.109 26.5469C178.245 26.8177 178.458 27.0312 178.75 27.1875C178.969 27.3021 179.286 27.3854 179.703 27.4375C180.13 27.4896 180.479 27.5208 180.75 27.5312V28.6719ZM172.781 25.8906V17.0625C172.708 16.8229 172.604 16.5573 172.469 16.2656C172.344 15.974 172.167 15.6979 171.938 15.4375C171.729 15.2188 171.448 15.026 171.094 14.8594C170.75 14.6927 170.359 14.6094 169.922 14.6094C168.88 14.6094 168.026 15.1979 167.359 16.375C166.693 17.5521 166.359 19.2135 166.359 21.3594C166.359 22.2031 166.417 22.9635 166.531 23.6406C166.656 24.3073 166.87 24.9167 167.172 25.4688C167.474 26.0208 167.859 26.4531 168.328 26.7656C168.807 27.0781 169.38 27.2344 170.047 27.2344C170.682 27.2344 171.208 27.1146 171.625 26.875C172.042 26.625 172.427 26.2969 172.781 25.8906Z" fill="white"/>
</svg>
