<svg width="132" height="58" viewBox="0 0 132 58" fill="none" xmlns="http://www.w3.org/2000/svg">
<g clip-path="url(#clip0_1229_6052)">
<path d="M40.7268 20.7066C40.7268 24.6996 39.5325 28.6029 37.295 31.923C35.0574 35.2431 31.8771 37.8308 28.1562 39.3588C24.4352 40.8869 20.3408 41.2867 16.3907 40.5077C12.4406 39.7287 8.81219 37.8059 5.96432 34.9824C3.11644 32.1589 1.17701 28.5616 0.391287 24.6453C-0.39444 20.729 0.00882318 16.6697 1.55008 12.9806C3.09134 9.29153 5.70137 6.13844 9.05012 3.92004C12.3989 1.70164 16.3359 0.517578 20.3634 0.517578V0.517578C25.7602 0.530394 30.9322 2.66156 34.7483 6.44496C38.5643 10.2284 40.7139 15.3561 40.7268 20.7066Z" fill="white"/>
<path d="M86.3487 20.7066C86.3487 24.6996 85.1544 28.6029 82.9169 31.923C80.6793 35.2431 77.499 37.8308 73.7781 39.3588C70.0571 40.8869 65.9627 41.2867 62.0126 40.5077C58.0625 39.7287 54.4341 37.8059 51.5862 34.9824C48.7383 32.1589 46.7989 28.5616 46.0132 24.6453C45.2274 20.729 45.6307 16.6697 47.172 12.9806C48.7132 9.29153 51.3233 6.13844 54.672 3.92004C58.0208 1.70164 61.9578 0.517578 65.9853 0.517578V0.517578C71.3821 0.530394 76.5541 2.66156 80.3702 6.44496C84.1862 10.2284 86.3358 15.3561 86.3487 20.7066Z" fill="white"/>
<path d="M6.8237 47.248V48.9127H4.60624V57.2989H2.56011V48.9127H0.342651V47.248H6.8237Z" fill="white"/>
<path d="M7.64606 47.248H9.60408V50.5045H9.63345C9.82352 50.1888 10.0977 49.9312 10.4259 49.7599C10.754 49.5887 11.1235 49.5105 11.4936 49.5339C12.7173 49.5339 13.4516 50.1987 13.4516 51.6935V57.2989H11.4936V52.0866C11.4936 51.3247 11.239 51.0286 10.6565 51.0286C9.99079 51.0286 9.61876 51.4363 9.61876 52.2856V57.2989H7.66074L7.64606 47.248Z" fill="white"/>
<path d="M16.4327 53.8205V54.4271C16.4327 55.3152 16.6774 56.1888 17.4117 56.1888C18.146 56.1888 18.332 55.7035 18.4495 54.7668H20.2117C20.1382 56.5285 19.2865 57.5137 17.4362 57.5137C14.597 57.5137 14.4991 55.3444 14.4991 53.4565C14.4991 51.423 14.9005 49.5352 17.5439 49.5352C19.8299 49.5352 20.3438 51.059 20.3438 53.3837V53.8205H16.4327ZM18.4397 52.6654C18.3956 51.5104 18.2536 50.8601 17.4606 50.8601C16.6677 50.8601 16.4523 51.6657 16.4523 52.3694V52.6654H18.4397Z" fill="white"/>
<path d="M24.8081 47.248H28.3913C30.4668 47.248 31.1766 48.7574 31.1766 50.2667C31.1766 52.3535 29.8794 53.2999 27.9507 53.2999H26.8542V57.2989H24.8081V47.248ZM26.8542 51.8051H27.7647C28.5724 51.8051 29.1304 51.3198 29.1304 50.2958C29.1304 49.2718 28.729 48.7428 27.706 48.7428H26.8542V51.8051Z" fill="white"/>
<path d="M34.5444 49.5342C36.9038 49.4905 37.5598 50.8882 37.5598 53.5235C37.5598 56.1587 36.7912 57.5127 34.5444 57.5127C32.185 57.5564 31.5339 56.1587 31.5339 53.5235C31.5339 50.8882 32.3074 49.5342 34.5444 49.5342ZM34.5444 56.1878C35.3423 56.1878 35.5968 55.4162 35.5968 53.5235C35.5968 51.6307 35.3423 50.8591 34.5444 50.8591C33.5654 50.8591 33.492 51.9753 33.492 53.5235C33.492 55.0716 33.5801 56.1878 34.5444 56.1878Z" fill="white"/>
<path d="M40.0464 54.8329V55.0901C40.0275 55.2315 40.0403 55.3753 40.0838 55.5112C40.1273 55.6472 40.2005 55.772 40.2982 55.8767C40.3959 55.9814 40.5156 56.0635 40.6489 56.1171C40.7823 56.1707 40.9259 56.1946 41.0695 56.1869C41.6667 56.1869 42.0485 55.8909 42.0485 55.2842C42.0452 55.082 41.9726 54.8868 41.8428 54.7308C41.7129 54.5747 41.5335 54.467 41.3338 54.4252L39.9583 53.9399C38.8765 53.5614 38.3234 52.8965 38.3234 51.8288C38.3234 50.5718 39.1164 49.543 41.138 49.543C42.9149 49.543 43.752 50.334 43.752 51.7026V52.0084H41.9898C41.9898 51.2513 41.7597 50.8679 41.1234 50.8679C41.0069 50.8549 40.8891 50.8664 40.7775 50.9017C40.6658 50.937 40.563 50.9953 40.4757 51.0727C40.3883 51.1501 40.3185 51.245 40.2707 51.351C40.2228 51.457 40.1982 51.5719 40.1982 51.6881C40.1982 52.052 40.3989 52.3626 41.0499 52.5762L42.2296 52.9693C43.4681 53.3769 43.9233 53.9981 43.9233 55.1386C43.9233 56.7353 42.7289 57.5215 41.0793 57.5215C38.8765 57.5215 38.2646 56.5509 38.2646 55.095V54.8232L40.0464 54.8329Z" fill="white"/>
<path d="M45.3527 47.5586H47.3107V49.7328H48.461V51.0577H47.3107V55.1586C47.3107 55.7507 47.438 55.9933 48.0058 55.9933C48.1547 55.9917 48.3034 55.982 48.4512 55.9642V57.2988C48.0205 57.3376 47.624 57.3813 47.1687 57.3813C45.6366 57.3813 45.3527 56.896 45.3527 55.3818V51.014H44.3737V49.6891H45.3527V47.5586Z" fill="white"/>
<path d="M52.7001 57.2989V47.248H54.7463V57.2989H52.7001Z" fill="white"/>
<path d="M56.2099 49.733H58.0896V50.6211C58.2793 50.2753 58.5638 49.9897 58.9103 49.7973C59.2568 49.6049 59.6511 49.5137 60.0476 49.534C61.2714 49.534 62.0056 50.1989 62.0056 51.6937V57.2991H60.0476V52.0868C60.0476 51.3249 59.7931 51.0288 59.2106 51.0288C58.5399 51.0288 58.1728 51.4365 58.1728 52.2858V57.2991H56.2148L56.2099 49.733Z" fill="white"/>
<path d="M63.7483 47.5586H65.7063V49.7328H66.842V51.0577H65.7063V55.1586C65.7063 55.7507 65.8336 55.9933 66.4063 55.9933C66.552 55.9917 66.6974 55.9819 66.842 55.9642V57.2988C66.4161 57.3376 66.0196 57.3813 65.5644 57.3813C64.0322 57.3813 63.7483 56.896 63.7483 55.3818V51.014H62.7693V49.6891H63.7483V47.5586Z" fill="white"/>
<path d="M69.2062 53.8205V54.4271C69.2062 55.3152 69.4461 56.1888 70.1853 56.1888C70.9244 56.1888 71.1104 55.7035 71.223 54.7668H72.9852C72.9167 56.5285 72.0601 57.5137 70.2146 57.5137C67.3706 57.5137 67.2776 55.3444 67.2776 53.4565C67.2776 51.423 67.6741 49.5352 70.3174 49.5352C72.6083 49.5352 73.1174 51.059 73.1174 53.3837V53.8205H69.2062ZM71.2083 52.6654C71.1643 51.5104 71.0223 50.8601 70.2293 50.8601C69.4363 50.8601 69.2209 51.6657 69.2209 52.3694V52.6654H71.2083Z" fill="white"/>
<path d="M74.1111 49.7341H75.9859V50.7484H76.0153C76.1581 50.3981 76.4009 50.0967 76.7139 49.8812C77.0269 49.6657 77.3966 49.5454 77.7775 49.5352C77.8971 49.5378 78.0164 49.5475 78.1349 49.5643V51.423C77.9342 51.423 77.7188 51.3939 77.523 51.3939C77.3326 51.3734 77.14 51.394 76.9584 51.4542C76.7768 51.5145 76.6105 51.6131 76.471 51.7431C76.3315 51.8731 76.222 52.0316 76.1501 52.2076C76.0782 52.3835 76.0456 52.5728 76.0545 52.7625V57.3002H74.0964L74.1111 49.7341Z" fill="white"/>
<path d="M78.8446 49.7333H80.7194V50.6215H80.7684C80.9572 50.2748 81.2415 49.9886 81.5882 49.7961C81.9349 49.6036 82.3296 49.5128 82.7264 49.5344C83.9501 49.5344 84.6844 50.1992 84.6844 51.694V57.2994H82.7264V52.0871C82.7264 51.3252 82.4718 51.0291 81.8893 51.0291C81.2187 51.0291 80.8516 51.4368 80.8516 52.2861V57.2994H78.8936L78.8446 49.7333Z" fill="white"/>
<path d="M85.9376 52.0588V51.8744C85.9376 50.1272 87.1467 49.5352 88.625 49.5352C90.955 49.5352 91.3956 50.5058 91.3956 51.8598V55.8442C91.3566 56.342 91.4406 56.8418 91.6403 57.3002H89.7606C89.646 57.0481 89.5653 56.7821 89.5208 56.5091H89.4914C89.0361 57.3002 88.483 57.4797 87.5334 57.4797C86.1676 57.4797 85.6879 56.3247 85.6879 55.3104C85.6879 53.8884 86.2704 53.306 87.6459 52.9421L88.7522 52.646C89.3347 52.4907 89.5354 52.2626 89.5354 51.7579C89.5354 51.1804 89.2809 50.8261 88.625 50.8261C88.4979 50.8203 88.371 50.842 88.2532 50.8897C88.1354 50.9373 88.0295 51.0099 87.9429 51.1023C87.8563 51.1946 87.7909 51.3046 87.7515 51.4245C87.712 51.5445 87.6994 51.6715 87.7145 51.7967V52.0103L85.9376 52.0588ZM89.5208 53.5147C89.2688 53.6939 88.9847 53.8241 88.6837 53.8981C87.8858 54.068 87.5725 54.4465 87.5725 55.1211C87.5725 55.6986 87.7879 56.1791 88.3117 56.1791C88.4698 56.1857 88.6275 56.1603 88.7753 56.1042C88.9231 56.0482 89.0577 55.9627 89.171 55.8532C89.2842 55.7436 89.3737 55.6123 89.4338 55.4672C89.494 55.3221 89.5236 55.1663 89.5208 55.0095V53.5147Z" fill="white"/>
<path d="M92.4773 55.8426L95.5318 51.3292H92.6193V49.752H97.8521V51.2467L94.7927 55.7553H97.8521V57.2986H92.4675L92.4773 55.8426Z" fill="white"/>
<path d="M98.9193 47.1367H100.877V48.8013H98.9193V47.1367ZM98.9193 49.7331H100.877V57.2992H98.9193V49.7331Z" fill="white"/>
<path d="M105.018 49.5342C107.378 49.4905 108.029 50.8882 108.029 53.5235C108.029 56.1587 107.26 57.5127 105.018 57.5127C102.654 57.5564 102.003 56.1587 102.003 53.5235C102.003 50.8882 102.796 49.5342 105.018 49.5342ZM105.018 56.1878C105.811 56.1878 106.066 55.4162 106.066 53.5235C106.066 51.6307 105.811 50.8591 105.018 50.8591C104.039 50.8591 103.966 51.9753 103.966 53.5235C103.966 55.0716 104.049 56.1878 105.018 56.1878Z" fill="white"/>
<path d="M109.081 49.7332H110.956V50.6213H110.986C111.175 50.275 111.459 49.9891 111.806 49.7967C112.152 49.6043 112.547 49.5132 112.944 49.5342C114.167 49.5342 114.902 50.1991 114.902 51.6938V57.2992H112.944V52.0869C112.944 51.325 112.689 51.029 112.107 51.029C111.436 51.029 111.069 51.4366 111.069 52.2859V57.2992H109.111L109.081 49.7332Z" fill="white"/>
<path d="M116.174 52.0588V51.8744C116.174 50.1272 117.383 49.5352 118.862 49.5352C121.192 49.5352 121.632 50.5058 121.632 51.8598V55.8442C121.593 56.342 121.677 56.8418 121.877 57.3002H119.997C119.885 57.0473 119.804 56.7816 119.757 56.5091H119.728C119.273 57.3002 118.72 57.4797 117.77 57.4797C116.404 57.4797 115.92 56.3247 115.92 55.3104C115.92 53.8884 116.502 53.306 117.853 52.9421L118.96 52.646C119.542 52.4907 119.743 52.2626 119.743 51.7579C119.743 51.1804 119.488 50.8261 118.832 50.8261C118.705 50.8203 118.578 50.842 118.461 50.8897C118.343 50.9373 118.237 51.0099 118.15 51.1023C118.064 51.1946 117.998 51.3046 117.959 51.4245C117.919 51.5445 117.907 51.6715 117.922 51.7967V52.0103L116.174 52.0588ZM119.757 53.5147C119.505 53.6939 119.221 53.8241 118.92 53.8981C118.123 54.068 117.809 54.4465 117.809 55.1211C117.809 55.6986 118.025 56.1791 118.548 56.1791C118.707 56.1865 118.865 56.1615 119.013 56.1057C119.161 56.0499 119.296 55.9645 119.409 55.8548C119.523 55.7451 119.612 55.6134 119.672 55.468C119.732 55.3226 119.761 55.1665 119.757 55.0095V53.5147Z" fill="white"/>
<path d="M123.101 47.248H125.059V57.2989H123.101V47.248Z" fill="white"/>
<path d="M128.118 53.8205V54.4271C128.118 55.3152 128.358 56.1888 129.097 56.1888C129.836 56.1888 130.022 55.7035 130.135 54.7668H131.897C131.829 56.5285 130.977 57.5137 129.127 57.5137C126.283 57.5137 126.19 55.3444 126.19 53.4565C126.19 51.423 126.591 49.5352 129.234 49.5352C131.52 49.5352 132.034 51.059 132.034 53.3837V53.8205H128.118ZM130.12 52.6654C130.081 51.5104 129.939 50.8601 129.141 50.8601C128.343 50.8601 128.133 51.6657 128.133 52.3694V52.6654H130.12Z" fill="white"/>
<path d="M131.971 20.7066C131.971 24.6996 130.776 28.6029 128.539 31.923C126.301 35.2431 123.121 37.8308 119.4 39.3588C115.679 40.8869 111.585 41.2867 107.635 40.5077C103.684 39.7287 100.056 37.8059 97.2081 34.9824C94.3602 32.1589 92.4208 28.5616 91.6351 24.6453C90.8493 20.729 91.2526 16.6697 92.7939 12.9806C94.3351 9.29154 96.9452 6.13844 100.294 3.92005C103.643 1.70165 107.58 0.517583 111.607 0.517583C114.282 0.515669 116.931 1.03657 119.402 2.05048C121.874 3.0644 124.119 4.55143 126.011 6.42654C127.902 8.30164 129.402 10.528 130.425 12.9783C131.447 15.4286 131.973 18.0548 131.971 20.7066Z" fill="white"/>
<path d="M15.3704 30.3156V28.2287L18.1117 28.0346C18.5033 28.0346 18.5522 27.889 18.5522 27.5008V14.2032H15.811C15.5173 14.2032 15.4194 14.2032 15.3704 14.4944L14.9299 16.6298L12.0418 16.7753V11.3398H29.0766V16.7753L26.1885 16.6298L25.748 14.4944C25.699 14.2517 25.6011 14.2032 25.3074 14.2032H22.6151V27.5493C22.6151 27.9375 22.6151 28.0346 23.0557 28.0346L25.9438 28.2287V30.3156H15.3704Z" fill="#1B1B1B"/>
<path d="M58.7896 30.3156V28.2287L60.4539 28.0346C60.8455 27.9861 60.8945 27.889 60.8945 27.5008V14.1547C60.8945 13.7664 60.8455 13.6693 60.4539 13.6208L58.7896 13.4267V11.3398H67.7476C72.6426 11.3398 74.1111 13.912 74.1111 16.9209C74.1111 21.4829 71.321 23.3271 66.8665 23.3271H64.9084V27.5008C64.9084 27.9375 64.9574 27.9861 65.349 28.0346L69.1182 28.2287V30.3156H58.7896ZM66.279 20.5123C68.0413 20.5123 69.9503 20.124 69.9503 17.1636C69.9503 14.64 68.3839 14.2032 66.5238 14.2032H64.9574V20.5123H66.279Z" fill="#1B1B1B"/>
<path d="M107.251 30.3156V28.2773L109.16 28.0831C109.551 28.0346 109.6 27.9375 109.6 27.5493V14.1547C109.6 13.7664 109.551 13.6693 109.16 13.6208L107.251 13.4267V11.3398H116.111V13.4267L114.055 13.6208C113.663 13.6693 113.614 13.7179 113.614 14.1061V27.5008C113.614 27.9375 113.614 27.9861 114.055 28.0346L116.111 28.2287V30.267L107.251 30.3156Z" fill="#1B1B1B"/>
</g>
<defs>
<clipPath id="clip0_1229_6052">
<rect width="132" height="57" fill="white" transform="translate(0 0.517578)"/>
</clipPath>
</defs>
</svg>
