<svg width="49" height="41" viewBox="0 0 49 41" fill="none" xmlns="http://www.w3.org/2000/svg">
<path d="M48.1302 20.0146C48.1302 30.6167 39.3515 39.1813 28.5607 39.1813C19.9232 39.1813 12.5748 33.6938 9.98605 26.0662C9.91952 25.8702 9.72189 25.7517 9.51693 25.7807C9.25599 25.8176 9.07516 26.0764 9.1599 26.3259C11.8607 34.279 19.5261 40.0146 28.5607 40.0146C39.849 40.0146 49 31.0603 49 20.0146C49 8.96895 39.849 0.0146484 28.5607 0.0146484C19.8336 0.0146484 12.384 5.36657 9.45276 12.8992C9.35709 13.1451 9.52708 13.4115 9.78658 13.459C9.98939 13.4961 10.191 13.3866 10.2658 13.1945C13.0748 5.96959 20.2161 0.847982 28.5607 0.847982C39.3515 0.847982 48.1302 9.41256 48.1302 20.0146Z" fill="white"/>
<path d="M0.646446 19.6611C0.451183 19.8564 0.451183 20.1729 0.646446 20.3682L3.82843 23.5502C4.02369 23.7454 4.34027 23.7454 4.53553 23.5502C4.7308 23.3549 4.7308 23.0383 4.53553 22.8431L1.70711 20.0146L4.53553 17.1862C4.7308 16.991 4.7308 16.6744 4.53553 16.4791C4.34027 16.2839 4.02369 16.2839 3.82843 16.4791L0.646446 19.6611ZM41 19.5146L1 19.5146V20.5146L41 20.5146V19.5146Z" fill="white"/>
</svg>
