<svg width="32" height="136" viewBox="0 0 32 136" fill="none" xmlns="http://www.w3.org/2000/svg">
<g clip-path="url(#clip0_123_460)">
<path d="M8.6736 114.339L10.7148 114.359C10.8749 113.185 11.4207 112.099 12.2662 111.27C13.1118 110.441 14.2091 109.916 15.3853 109.78L15.4054 107.738L16.7386 107.751L16.7193 109.793C17.8925 109.953 18.9791 110.498 19.8081 111.344C20.6371 112.189 21.1614 113.286 21.2983 114.462L23.3396 114.483L23.3265 115.816L21.2852 115.796C21.1254 116.97 20.5797 118.057 19.7343 118.886C18.8888 119.715 17.7916 120.239 16.6154 120.376L16.5947 122.417L15.2614 122.404L15.2815 120.363C14.1081 120.203 13.0212 119.657 12.192 118.812C11.3629 117.966 10.8386 116.869 10.7018 115.693L8.66052 115.673L8.6736 114.339ZM12.0002 115.039C11.9898 116.099 12.4012 117.121 13.144 117.878C13.8867 118.636 14.9 119.067 15.9608 119.078C17.0216 119.088 18.0431 118.677 18.8006 117.934C19.558 117.191 19.9894 116.178 19.9998 115.117C20.0103 114.056 19.5988 113.035 18.8561 112.277C18.1133 111.52 17.1001 111.088 16.0393 111.078C14.9785 111.068 13.957 111.479 13.1995 112.222C12.442 112.965 12.0106 113.978 12.0002 115.039ZM14.6668 115.065C14.6702 114.711 14.814 114.373 15.0665 114.126C15.319 113.878 15.6595 113.741 16.0131 113.745C16.3667 113.748 16.7045 113.892 16.9521 114.144C17.1996 114.397 17.3368 114.737 17.3333 115.091C17.3298 115.445 17.186 115.782 16.9335 116.03C16.6811 116.277 16.3406 116.415 15.987 116.411C15.6333 116.408 15.2956 116.264 15.048 116.011C14.8004 115.759 14.6633 115.418 14.6668 115.065Z" fill="white"/>
</g>
<path d="M14.148 91.2697L12.468 91.3777C12.06 92.2657 11.796 93.3817 11.796 94.6657C11.796 98.0857 13.584 100.174 16.5 100.174C19.416 100.174 21.216 98.0857 21.216 94.6297C21.216 93.4417 21.024 92.2657 20.544 91.2097L18.816 91.1017C19.344 92.1937 19.62 93.2737 19.62 94.4137C19.62 96.8377 18.54 98.1937 16.512 98.1937C14.436 98.1937 13.332 96.9097 13.332 94.5457C13.332 93.3457 13.656 92.2417 14.148 91.2697ZM21.216 83.6024C21.216 80.3384 19.356 78.2624 16.5 78.2624C13.656 78.2624 11.796 80.3384 11.796 83.6024C11.796 86.8664 13.656 88.9424 16.5 88.9424C19.356 88.9424 21.216 86.8664 21.216 83.6024ZM16.5 87.0224C14.592 87.0224 13.356 85.6784 13.356 83.6024C13.356 81.5264 14.592 80.1824 16.5 80.1824C18.408 80.1824 19.632 81.5264 19.632 83.6024C19.632 85.6784 18.408 87.0224 16.5 87.0224ZM21 75.6768L21 68.1168L19.44 68.1168L19.44 73.7568L12 73.7568L12 75.6768L21 75.6768ZM21.216 61.1516C21.216 57.8876 19.356 55.8116 16.5 55.8116C13.656 55.8116 11.796 57.8876 11.796 61.1516C11.796 64.4156 13.656 66.4916 16.5 66.4916C19.356 66.4916 21.216 64.4156 21.216 61.1516ZM16.5 64.5716C14.592 64.5716 13.356 63.2276 13.356 61.1516C13.356 59.0756 14.592 57.7316 16.5 57.7316C18.408 57.7316 19.632 59.0756 19.632 61.1516C19.632 63.2276 18.408 64.5716 16.5 64.5716ZM21 53.226L21 51.366L14.64 51.366L21 48.666L21 46.914L14.616 44.214L21 44.214L21 42.354L12 42.354L12 44.694L19.068 47.79L12 50.898L12 53.226L21 53.226ZM21 39.4752L21 33.3552C21 31.3512 20.088 30.2592 18.648 30.2592C17.34 30.2592 16.404 31.1712 16.38 32.3352C16.272 31.3392 15.48 30.5952 14.364 30.5952C12.924 30.5952 12 31.7712 12 33.9072L12 39.4752L21 39.4752ZM19.476 37.6752L17.172 37.6752L17.172 34.0272C17.172 32.8992 17.616 32.2392 18.372 32.2392C19.068 32.2392 19.476 32.7432 19.476 33.5712L19.476 37.6752ZM15.696 37.6752L13.5 37.6752L13.5 34.1232C13.5 33.1152 13.872 32.5752 14.64 32.5752C15.324 32.5752 15.696 33.1032 15.696 34.0752L15.696 37.6752ZM21 27.8573L21 25.9373L12 25.9373L12 27.8573L21 27.8573ZM21 21.6196L18.84 20.5876L18.84 15.6436L21 14.6116L21 12.4756L12 17.1196L12 19.1116L21 23.7196L21 21.6196ZM17.34 19.8676L13.668 18.1156L17.34 16.3636L17.34 19.8676Z" fill="white"/>
<rect x="0.5" y="134.656" width="134.156" height="31" rx="15.5" transform="rotate(-90 0.5 134.656)" stroke="white"/>
<defs>
<clipPath id="clip0_123_460">
<rect width="16" height="16" fill="white" transform="translate(7.92188 122.999) rotate(-89.4377)"/>
</clipPath>
</defs>
</svg>
