<svg width="32" height="116" viewBox="0 0 32 116" fill="none" xmlns="http://www.w3.org/2000/svg">
<g clip-path="url(#clip0_323_2396)">
<path d="M8.6736 94.3393L10.7148 94.3586C10.8749 93.1853 11.4207 92.0986 12.2662 91.2696C13.1118 90.4406 14.2091 89.9164 15.3853 89.7796L15.4054 87.7383L16.7386 87.7514L16.7193 89.7927C17.8925 89.9527 18.9791 90.4984 19.8081 91.3438C20.6371 92.1892 21.1614 93.2864 21.2983 94.4625L23.3396 94.4832L23.3265 95.8165L21.2852 95.7964C21.1254 96.9697 20.5797 98.0565 19.7343 98.8857C18.8888 99.7148 17.7916 100.239 16.6154 100.376L16.5947 102.417L15.2614 102.404L15.2815 100.363C14.1081 100.203 13.0212 99.6574 12.192 98.8118C11.3629 97.9663 10.8386 96.8689 10.7018 95.6926L8.66052 95.6725L8.6736 94.3393ZM12.0002 95.0386C11.9898 96.0994 12.4012 97.1209 13.144 97.8784C13.8867 98.6359 14.9 99.0672 15.9608 99.0777C17.0216 99.0881 18.0431 98.6766 18.8006 97.9339C19.558 97.1912 19.9894 96.1779 19.9998 95.1171C20.0103 94.0563 19.5988 93.0348 18.8561 92.2773C18.1133 91.5198 17.1001 91.0885 16.0393 91.078C14.9785 91.0676 13.957 91.4791 13.1995 92.2218C12.442 92.9646 12.0106 93.9778 12.0002 95.0386ZM14.6668 95.0648C14.6702 94.7112 14.814 94.3734 15.0665 94.1258C15.319 93.8783 15.6595 93.7411 16.0131 93.7446C16.3667 93.7481 16.7045 93.8919 16.9521 94.1443C17.1996 94.3968 17.3368 94.7373 17.3333 95.0909C17.3298 95.4445 17.186 95.7823 16.9335 96.0299C16.6811 96.2775 16.3406 96.4146 15.987 96.4111C15.6333 96.4077 15.2956 96.2639 15.048 96.0114C14.8004 95.7589 14.6633 95.4184 14.6668 95.0648Z" fill="white"/>
</g>
<path d="M13.56 80.2118L13.56 76.6718L21 76.6718L21 74.7518L13.56 74.7518L13.56 71.2118L12 71.2118L12 80.2118L13.56 80.2118ZM21.216 64.1313C21.216 60.8673 19.356 58.7913 16.5 58.7913C13.656 58.7913 11.796 60.8673 11.796 64.1313C11.796 67.3953 13.656 69.4713 16.5 69.4713C19.356 69.4713 21.216 67.3953 21.216 64.1313ZM16.5 67.5513C14.592 67.5513 13.356 66.2073 13.356 64.1313C13.356 62.0553 14.592 60.7113 16.5 60.7113C18.408 60.7113 19.632 62.0553 19.632 64.1313C19.632 66.2073 18.408 67.5513 16.5 67.5513ZM21 56.2057L21 54.2857L17.46 54.2857L17.46 51.9577L21 49.2217L21 46.8697L17.292 49.8577C17.208 48.0697 16.2 47.0017 14.724 47.0017C13.128 47.0017 12 48.1777 12 50.2897L12 56.2057L21 56.2057ZM15.9 54.2857L13.56 54.2857L13.56 50.6977C13.56 49.4497 13.908 48.9217 14.736 48.9217C15.552 48.9217 15.9 49.4137 15.9 50.6137L15.9 54.2857ZM21 44.4471L21 42.5271L12 42.5271L12 44.4471L21 44.4471ZM21 39.6495L21 33.5295C21 31.5255 20.088 30.4335 18.648 30.4335C17.34 30.4335 16.404 31.3455 16.38 32.5095C16.272 31.5135 15.48 30.7695 14.364 30.7695C12.924 30.7695 12 31.9455 12 34.0815L12 39.6495L21 39.6495ZM19.476 37.8495L17.172 37.8495L17.172 34.2015C17.172 33.0735 17.616 32.4135 18.372 32.4135C19.068 32.4135 19.476 32.9175 19.476 33.7455L19.476 37.8495ZM15.696 37.8495L13.5 37.8495L13.5 34.2975C13.5 33.2895 13.872 32.7495 14.64 32.7495C15.324 32.7495 15.696 33.2775 15.696 34.2495L15.696 37.8495ZM21 28.0315L21 26.1115L12 26.1115L12 28.0315L21 28.0315ZM11.22 28.2595L11.22 26.6875L9.288 24.7195L9.288 26.9995L11.22 28.2595ZM21.216 18.1938C21.216 14.9298 19.356 12.8538 16.5 12.8538C13.656 12.8538 11.796 14.9298 11.796 18.1938C11.796 21.4578 13.656 23.5338 16.5 23.5338C19.356 23.5338 21.216 21.4578 21.216 18.1938ZM16.5 21.6138C14.592 21.6138 13.356 20.2698 13.356 18.1938C13.356 16.1178 14.592 14.7738 16.5 14.7738C18.408 14.7738 19.632 16.1178 19.632 18.1938C19.632 20.2698 18.408 21.6138 16.5 21.6138Z" fill="white"/>
<rect x="0.5" y="114.656" width="114.156" height="31" rx="15.5" transform="rotate(-90 0.5 114.656)" stroke="white"/>
<defs>
<clipPath id="clip0_323_2396">
<rect width="16" height="16" fill="white" transform="translate(7.92188 102.999) rotate(-89.4377)"/>
</clipPath>
</defs>
</svg>
