<svg width="24" height="24" viewBox="0 0 24 24" fill="none" xmlns="http://www.w3.org/2000/svg">
<path d="M20.218 6.66195C19.5731 6.94721 18.8892 7.13455 18.189 7.21778C18.9271 6.77636 19.4795 6.08164 19.7433 5.26309C19.0506 5.67531 18.2912 5.96421 17.4997 6.12048C16.968 5.55163 16.2633 5.17436 15.4951 5.04733C14.7269 4.92031 13.9383 5.05063 13.2518 5.41806C12.5653 5.78548 12.0195 6.36941 11.6991 7.07907C11.3787 7.78873 11.3017 8.58436 11.4802 9.34226C10.0755 9.27186 8.70133 8.90683 7.44687 8.27087C6.19242 7.63491 5.08573 6.74224 4.19866 5.65082C3.88467 6.19013 3.71967 6.80321 3.72055 7.42727C3.72055 8.65212 4.34396 9.73422 5.29174 10.3678C4.73085 10.3501 4.1823 10.1986 3.69183 9.92597V9.96989C3.692 10.7856 3.97428 11.5762 4.49081 12.2076C5.00734 12.839 5.72633 13.2723 6.52588 13.4341C6.0052 13.5752 5.45925 13.596 4.92935 13.4949C5.15478 14.1971 5.59415 14.8112 6.18596 15.2512C6.77776 15.6912 7.49235 15.9352 8.22969 15.9489C7.49687 16.5244 6.65781 16.9498 5.76046 17.2009C4.86311 17.4519 3.92508 17.5236 3 17.4119C4.61486 18.4504 6.49471 19.0018 8.41468 19C14.9131 19 18.4669 13.6166 18.4669 8.94778C18.4669 8.79573 18.4627 8.64199 18.4559 8.49163C19.1476 7.99169 19.7446 7.37238 20.2189 6.6628L20.218 6.66195Z" fill="white"/>
</svg>
